<?xml version="1.0" encoding="utf-8"?>
<!-- Generator: Adobe Illustrator 17.0.2, SVG Export Plug-In . SVG Version: 6.00 Build 0)  -->
<!DOCTYPE svg PUBLIC "-//W3C//DTD SVG 1.1//EN" "http://www.w3.org/Graphics/SVG/1.1/DTD/svg11.dtd">
<svg version="1.1" id="Layer_1" xmlns="http://www.w3.org/2000/svg" xmlns:xlink="http://www.w3.org/1999/xlink" x="0px" y="0px"
	 width="512px" height="512px" viewBox="0 0 512 512" enable-background="new 0 0 512 512" xml:space="preserve">
<path fill-rule="evenodd" clip-rule="evenodd" d="M64.81,0h382.38C482.983,0,512,29.017,512,64.81v382.38
	c0,35.793-29.017,64.81-64.81,64.81H64.81C29.017,512,0,482.983,0,447.19V64.81C0,29.017,29.017,0,64.81,0z"/>
<path fill="#8BF5A5" d="M254.889,33.159c-97.229,0-176.046,65.883-176.046,168.483c0,34.803,9.091,67.356,24.869,95.197
	c-4.6,9.1-7.221,19.537-7.221,30.639c0,29.473,18.459,54.221,43.549,61.654l18.262,68.016c0,4.841,3.757,8.764,8.395,8.764h22.055
	v-33.725H214.7v33.725h25.948v-33.725h25.95v33.725h25.945v-33.725h25.947v33.725h24.59c4.638,0,8.396-3.923,8.396-8.764
	l18.494-68.881c23.671-8.375,40.784-32.406,40.784-60.789c0-10.124-2.235-19.666-6.111-28.183
	c16.653-28.377,26.292-61.819,26.292-97.653C430.935,99.042,352.118,33.159,254.889,33.159z M254.889,311.558
	c22.605,0,36.847,57.762,12.539,57.762c-24.313,0-2.606,0-26.286,0S232.284,311.558,254.889,311.558z M340.312,192.802
	c35.309-8.199,48.282,26.133,42.274,49.846c-4.848,19.13-14.245,36.393-29.293,44.668h-42.595
	c-16.465-8.14-27.818-25.049-27.818-44.668C282.88,215.119,307.505,205.689,340.312,192.802z M170.874,192.802
	c32.809,12.887,57.435,22.316,57.435,49.846c0,19.619-11.352,36.528-27.817,44.668h-42.595
	c-15.051-8.275-24.445-25.538-29.29-44.668C122.595,218.935,135.57,184.603,170.874,192.802z"/>
</svg>
