<?xml version="1.0" encoding="utf-8"?>
<!-- Generator: Adobe Illustrator 15.1.0, SVG Export Plug-In . SVG Version: 6.00 Build 0)  -->
<!DOCTYPE svg PUBLIC "-//W3C//DTD SVG 1.1//EN" "http://www.w3.org/Graphics/SVG/1.1/DTD/svg11.dtd">
<svg version="1.1" id="Ebene_1" xmlns="http://www.w3.org/2000/svg" xmlns:xlink="http://www.w3.org/1999/xlink" x="0px" y="0px"
	 width="255px" height="377px" viewBox="0 0 255 377" enable-background="new 0 0 255 377" xml:space="preserve">
<path fill-rule="evenodd" clip-rule="evenodd" d="M218.354,260.919c-0.262,0.516-0.512,1.039-0.76,1.562
	c-1.248,2.627-2.342,5.326-3.307,8.07c-3.029,8.612-4.816,17.779-4.816,26.924c0,7.642-0.297,15.438-2.117,22.89
	c-1.402,5.749-3.754,11.026-7.818,15.399c-1.893,2.034-4.068,3.777-6.414,5.26c-3.42,2.16-6.457,4.483-8.939,7.715
	c-1.029,1.341-1.963,2.754-2.904,4.156c-1.293,1.924-2.607,3.832-3.998,5.687c-5.496,7.329-11.07,11.95-19.908,14.728
	c-5.008,1.573-9.971,1.944-15.186,1.537c-5.053-0.395-10.088-1.351-15.165-1.351c-5.076,0-10.113,0.956-15.165,1.351
	c-5.215,0.407-10.178,0.036-15.186-1.537c-8.837-2.777-14.411-7.398-19.907-14.728c-1.39-1.854-2.706-3.763-3.998-5.687
	c-0.942-1.402-1.875-2.815-2.905-4.156c-2.482-3.231-5.519-5.555-8.939-7.715c-2.346-1.482-4.523-3.226-6.415-5.26
	c-4.064-4.373-6.416-9.65-7.819-15.399c-1.819-7.452-2.117-15.248-2.117-22.89c0-7.618-1.24-15.236-3.396-22.535
	c-0.877-2.969-1.726-5.985-2.896-8.855c-0.653-1.6-1.422-3.117-2.633-4.373c-1.137-1.18-2.607-2.1-3.982-2.977
	c-2.362-1.506-4.709-3.029-6.978-4.672c-5.763-4.173-11.009-9.312-13.729-16.014c-3.442-8.48-2.03-17.471,1.035-25.822
	c2.195-5.982,2.159-12.271,1.269-18.505c-1.241-8.687-2.97-17.296-4.811-25.873c-1.679-7.826-3.439-15.64-4.721-23.545
	c-2.738-16.89-2.257-34.331,1.706-50.989c3.064-12.879,8.206-25.225,15.352-36.377c46.118-71.973,166.354-71.973,212.471,0
	c7.146,11.152,12.287,23.498,15.352,36.377c3.965,16.659,4.445,34.1,1.707,50.989c-1.281,7.905-3.041,15.719-4.721,23.545
	c-1.842,8.577-3.57,17.186-4.811,25.873c-0.891,6.233-0.926,12.522,1.268,18.505c3.064,8.352,4.479,17.342,1.035,25.822
	C238.795,248.624,227.947,255.626,218.354,260.919L218.354,260.919z"/>
<path fill-rule="evenodd" clip-rule="evenodd" fill="#FF0066" d="M77.104,153.304c1.801,0,3.262,1.461,3.262,3.262
	c0,0.168-0.013,0.333-0.038,0.495c-2.091-0.464-4.251-0.783-6.452-0.961C74.102,154.52,75.461,153.304,77.104,153.304
	L77.104,153.304z M116.5,105.636c-25.201-24.131-39.28,19.576-4.359,14.521c-1.123-4.232-8.19-2.435-14.362-5.615
	c2.993,0.434,20.401,1.918,12.243-1.63l-14.159-5.922l14.936,3.532c8.525,1.889-6.37-7.27-9.144-8.66
	C108.486,102.82,114.394,108.835,116.5,105.636L116.5,105.636z M101.306,47.65c2.214,0,4.009,1.795,4.009,4.009
	c0,2.213-1.795,4.008-4.009,4.008c-2.213,0-4.008-1.795-4.008-4.008C97.298,49.445,99.093,47.65,101.306,47.65L101.306,47.65z
	 M152.766,47.65c-2.213,0-4.008,1.795-4.008,4.009c0,2.213,1.795,4.008,4.008,4.008c2.215,0,4.01-1.795,4.01-4.008
	C156.775,49.445,154.98,47.65,152.766,47.65L152.766,47.65z M127.021,55.973c2.618,0,4.74,2.123,4.74,4.74
	c0,2.618-2.122,4.74-4.74,4.74s-4.74-2.122-4.74-4.74C122.28,58.096,124.402,55.973,127.021,55.973L127.021,55.973z
	 M127.036,104.071c7.204,0,13.044,5.84,13.044,13.044s-5.84,13.043-13.044,13.043s-13.044-5.839-13.044-13.043
	S119.832,104.071,127.036,104.071L127.036,104.071z M127.163,106.554c5.853,0,10.599,4.745,10.599,10.598
	c0,5.12-3.633,9.393-8.459,10.382c3.963-1.534,6.773-5.382,6.773-9.887c0-5.853-4.744-10.598-10.598-10.598
	c-0.733,0-1.449,0.075-2.14,0.216C124.524,106.806,125.813,106.554,127.163,106.554L127.163,106.554z M127.036,110.261
	c3.786,0,6.854,3.069,6.854,6.854s-3.068,6.854-6.854,6.854c-3.785,0-6.854-3.069-6.854-6.854S123.251,110.261,127.036,110.261
	L127.036,110.261z M134.697,103.547c15.162-31.424-30.756-31.308-15.158,0.342c3.678-2.375-0.214-8.542,0.903-15.394
	c0.512,2.981,4.479,19.996,5.333,11.14l1.258-15.296l1.256,15.296c0.838,8.692,4.945-8.305,5.41-11.372
	C134.898,95.055,131.004,102.532,134.697,103.547L134.697,103.547z M142.307,120.208c34.572,4.709,20.271-38.926-5.01-14.31
	c3.396,2.763,8.059-2.844,14.92-3.899c-2.676,1.408-17.633,10.439-8.947,8.515l14.938-3.531l-14.16,5.921
	c-8.008,3.483,9.428,2.137,12.488,1.632C150.445,117.774,142.131,116.381,142.307,120.208L142.307,120.208z M128.815,132.594
	c6.204,34.335,43.284,7.25,12.062-9.186c-1.58,4.083,5.193,6.784,8.318,12.984c-2.166-2.11-15.377-13.543-10.863-5.878l7.975,13.114
	l-10.008-11.637c-5.787-6.539,0.881,9.626,2.307,12.381C133.645,139.583,132.4,131.244,128.815,132.594L128.815,132.594z
	 M112.864,123.587c-30.738,16.511,6.48,43.407,12.463,8.632c-4.372-0.239-4.847,7.037-9.778,11.924
	c1.337-2.712,8.129-18.81,2.233-12.147l-10.008,11.635l7.975-13.113c4.431-7.524-8.883,3.812-11.062,6.02
	C107.709,130.34,115.255,126.579,112.864,123.587L112.864,123.587z M176.973,153.304c-1.801,0-3.262,1.461-3.262,3.262
	c0,0.168,0.014,0.333,0.037,0.495c2.092-0.464,4.252-0.783,6.453-0.961C179.975,154.52,178.615,153.304,176.973,153.304
	L176.973,153.304z M192.002,153.221c-1.676,0-3.059,1.266-3.24,2.894c2.277,0.196,4.424,0.546,6.434,1.039
	c0.045-0.216,0.068-0.441,0.068-0.671C195.264,154.682,193.803,153.221,192.002,153.221L192.002,153.221z M205.951,158.536
	c-1.213,0-2.27,0.662-2.832,1.643c1.967,1.075,3.732,2.334,5.295,3.756c0.498-0.572,0.799-1.32,0.799-2.138
	C209.213,159.996,207.752,158.536,205.951,158.536L205.951,158.536z M215.094,170.127c-0.537,0-1.043,0.13-1.49,0.36
	c1.02,1.832,1.854,3.855,2.496,6.005c1.309-0.424,2.256-1.653,2.256-3.104C218.355,171.588,216.895,170.127,215.094,170.127
	L215.094,170.127z M217.594,184.808L217.594,184.808c0.156,2.153,0.152,4.343-0.016,6.523h0.016c1.801,0,3.262-1.46,3.262-3.262
	C220.855,186.269,219.395,184.808,217.594,184.808L217.594,184.808z M213.604,205.923c0.42,0.197,0.887,0.307,1.381,0.307
	c1.801,0,3.262-1.461,3.262-3.262c0-1.438-0.934-2.66-2.227-3.094C215.393,201.991,214.588,204.026,213.604,205.923L213.604,205.923
	z M202.963,216.739c0.594,0.811,1.551,1.336,2.633,1.336c1.801,0,3.262-1.46,3.262-3.262c0-0.663-0.199-1.28-0.541-1.796
	c-0.711,0.665-1.465,1.28-2.262,1.843C205.092,215.539,204.062,216.168,202.963,216.739L202.963,216.739z M188.295,220.442
	c0.164,1.649,1.555,2.937,3.246,2.937c1.801,0,3.262-1.46,3.262-3.262c0-0.171-0.014-0.339-0.039-0.503
	C192.758,220.036,190.604,220.318,188.295,220.442L188.295,220.442z M173.414,218.809c-0.047,0.223-0.072,0.453-0.072,0.69
	c0,1.801,1.461,3.262,3.262,3.262c1.57,0,2.879-1.109,3.191-2.587C177.564,219.89,175.436,219.429,173.414,218.809L173.414,218.809z
	 M160.227,211.327c-0.422,0.551-0.674,1.238-0.674,1.984c0,1.801,1.461,3.262,3.262,3.262c1.08,0,2.037-0.525,2.631-1.333
	C163.555,214.089,161.811,212.776,160.227,211.327L160.227,211.327z M151.672,198.884c-1.084,0.529-1.83,1.644-1.83,2.932
	c0,1.801,1.459,3.262,3.262,3.262c0.555,0,1.078-0.139,1.535-0.384C153.461,202.854,152.467,200.907,151.672,198.884
	L151.672,198.884z M149.324,183.988c-1.75,0.059-3.15,1.496-3.15,3.259c0,1.802,1.461,3.262,3.262,3.262
	c0.049,0,0.098-0.002,0.146-0.004C149.309,188.214,149.227,186.041,149.324,183.988L149.324,183.988z M152.371,169.225
	c-1.803,0-3.262,1.46-3.262,3.261c0,1.287,0.746,2.4,1.828,2.931c0.746-2.125,1.732-4.068,2.918-5.834
	C153.41,169.354,152.906,169.225,152.371,169.225L152.371,169.225z M162.775,158.287c-1.803,0-3.264,1.46-3.264,3.261
	c0,0.597,0.162,1.155,0.441,1.636c1.715-1.295,3.59-2.415,5.592-3.357C164.969,158.902,163.943,158.287,162.775,158.287
	L162.775,158.287z M62.075,153.221c1.677,0,3.058,1.266,3.241,2.894c-2.278,0.196-4.423,0.546-6.433,1.039
	c-0.045-0.216-0.069-0.441-0.069-0.671C58.813,154.682,60.274,153.221,62.075,153.221L62.075,153.221z M48.125,158.536
	c1.212,0,2.27,0.662,2.833,1.643c-1.967,1.075-3.733,2.334-5.295,3.756c-0.497-0.572-0.798-1.32-0.798-2.138
	C44.864,159.996,46.324,158.536,48.125,158.536L48.125,158.536z M38.984,170.127c0.537,0,1.043,0.13,1.49,0.36
	c-1.021,1.832-1.853,3.855-2.495,6.005c-1.309-0.424-2.256-1.653-2.256-3.104C35.722,171.588,37.183,170.127,38.984,170.127
	L38.984,170.127z M36.483,184.808L36.483,184.808c-0.156,2.153-0.152,4.343,0.016,6.523h-0.016c-1.801,0-3.262-1.46-3.262-3.262
	C33.221,186.269,34.682,184.808,36.483,184.808L36.483,184.808z M40.474,205.923c-0.419,0.197-0.887,0.307-1.381,0.307
	c-1.801,0-3.261-1.461-3.261-3.262c0-1.438,0.933-2.66,2.226-3.094C38.686,201.991,39.489,204.026,40.474,205.923L40.474,205.923z
	 M51.114,216.739c-0.593,0.811-1.551,1.336-2.632,1.336c-1.801,0-3.261-1.46-3.261-3.262c0-0.663,0.199-1.28,0.539-1.796
	c0.712,0.665,1.467,1.28,2.262,1.843C48.985,215.539,50.015,216.168,51.114,216.739L51.114,216.739z M65.782,220.442
	c-0.163,1.649-1.554,2.937-3.246,2.937c-1.801,0-3.261-1.46-3.261-3.262c0-0.171,0.014-0.339,0.039-0.503
	C61.32,220.036,63.474,220.318,65.782,220.442L65.782,220.442z M80.662,218.809c0.048,0.223,0.074,0.453,0.074,0.69
	c0,1.801-1.46,3.262-3.262,3.262c-1.569,0-2.88-1.109-3.191-2.587C76.513,219.89,78.642,219.429,80.662,218.809L80.662,218.809z
	 M93.852,211.327c0.422,0.551,0.673,1.238,0.673,1.984c0,1.801-1.46,3.262-3.262,3.262c-1.08,0-2.037-0.525-2.63-1.333
	C90.523,214.089,92.267,212.776,93.852,211.327L93.852,211.327z M102.404,198.884c1.085,0.529,1.832,1.644,1.832,2.932
	c0,1.801-1.46,3.262-3.262,3.262c-0.556,0-1.078-0.139-1.536-0.384C100.617,202.854,101.61,200.907,102.404,198.884L102.404,198.884
	z M104.753,183.988c1.75,0.059,3.15,1.496,3.15,3.259c0,1.802-1.46,3.262-3.262,3.262c-0.049,0-0.097-0.002-0.146-0.004
	C104.77,188.214,104.852,186.041,104.753,183.988L104.753,183.988z M101.707,169.225c1.801,0,3.261,1.46,3.261,3.261
	c0,1.287-0.746,2.4-1.829,2.931c-0.747-2.125-1.732-4.068-2.918-5.834C100.667,169.354,101.172,169.225,101.707,169.225
	L101.707,169.225z M91.303,158.287c1.801,0,3.262,1.46,3.262,3.261c0,0.597-0.16,1.155-0.44,1.636
	c-1.715-1.295-3.59-2.415-5.592-3.357C89.108,158.902,90.134,158.287,91.303,158.287L91.303,158.287z"/>
<path fill-rule="evenodd" clip-rule="evenodd" fill="#17C454" d="M167.848,241.15c11.459-8.142,36.816,5.011,44.557-8.746
	c1.291,9.038-6.961,11.137-15.109,10.815c-1.113-0.044-2.248-0.131-3.391-0.248c4.338-0.396,10.322-1.725,12.34-3.03
	c-5.992,1.759-13.26,1.958-20.078,1.604C181.738,241.315,173.047,239.674,167.848,241.15L167.848,241.15z M157.902,333.071
	c-1.357-0.551-4.156-1.381-6.826-0.277c-2.883,1.19-5.1,4.256-9.082,5.229c3.266,1.639,8.012,2.48,11.133,0.668
	c1.938-1.125,3.67-2.922,4.682-4.09c-4.02,0.502-5.75,3.492-10.715,3.052c3.229-0.691,3.768-1.384,5.76-2.646
	C154.434,334.004,156.088,333.3,157.902,333.071L157.902,333.071z M96.17,333.071c1.357-0.551,4.156-1.381,6.826-0.277
	c2.882,1.19,5.099,4.256,9.082,5.229c-3.265,1.639-8.011,2.48-11.132,0.668c-1.938-1.125-3.671-2.922-4.683-4.09
	c4.02,0.502,5.751,3.492,10.716,3.052c-3.229-0.691-3.768-1.384-5.76-2.646C99.639,334.004,97.985,333.3,96.17,333.071
	L96.17,333.071z M66.194,325.34c0.088,1.462,0.548,4.345,2.695,6.277c2.319,2.086,6.041,2.762,8.637,5.936
	c0.069-3.652-1.22-8.297-4.202-10.33c-1.851-1.263-4.22-2.051-5.71-2.459c2.188,3.409,5.633,3.681,7.378,8.349
	c-2.017-2.613-2.875-2.802-4.874-4.054C68.533,328.066,67.184,326.878,66.194,325.34L66.194,325.34z M187.879,325.34
	c-0.09,1.462-0.549,4.345-2.695,6.277c-2.32,2.086-6.041,2.762-8.637,5.936c-0.07-3.652,1.219-8.297,4.201-10.33
	c1.852-1.263,4.221-2.051,5.711-2.459c-2.188,3.409-5.633,3.681-7.379,8.349c2.018-2.613,2.875-2.802,4.875-4.054
	C185.539,328.066,186.889,326.878,187.879,325.34L187.879,325.34z M178.959,123.45c1.076,1.719,3.543,4.919,7.434,5.848
	c4.199,1.001,9.172-0.641,14.43,1.499c-2.334-4.487-6.977-9.28-11.949-9.778c-3.086-0.309-6.488,0.302-8.57,0.791
	c4.916,2.697,9.285,0.746,14.498,5.266c-4.184-1.842-5.35-1.503-8.609-1.702C183.607,125.216,181.18,124.665,178.959,123.45
	L178.959,123.45z M90.147,28.404c-1.036-1.037-3.29-2.891-6.178-2.916c-3.119-0.026-6.355,1.934-10.402,1.276
	c2.368,2.782,6.411,5.407,9.992,4.954c2.223-0.281,4.52-1.261,5.906-1.941c-3.897-1.105-6.658,0.975-11.058-1.366
	c3.243,0.622,4.009,0.194,6.336-0.192C86.589,27.911,88.387,27.907,90.147,28.404L90.147,28.404z M163.926,28.404
	c1.035-1.037,3.289-2.891,6.178-2.916c3.119-0.026,6.355,1.934,10.402,1.276c-2.369,2.782-6.412,5.407-9.992,4.954
	c-2.223-0.281-4.52-1.261-5.906-1.941c3.896-1.105,6.658,0.975,11.057-1.366c-3.242,0.622-4.008,0.194-6.336-0.192
	C167.484,27.911,165.686,27.907,163.926,28.404L163.926,28.404z M75.114,123.45c-1.076,1.719-3.543,4.919-7.434,5.848
	c-4.2,1.001-9.173-0.641-14.43,1.499c2.334-4.487,6.977-9.28,11.948-9.778c3.087-0.309,6.489,0.302,8.571,0.791
	c-4.917,2.697-9.286,0.746-14.498,5.266c4.183-1.842,5.35-1.503,8.609-1.702C70.466,125.216,72.893,124.665,75.114,123.45
	L75.114,123.45z M65.679,104.217c-1.711-1.089-4.894-3.578-5.794-7.476c-0.971-4.206,0.707-9.168-1.396-14.44
	c4.471,2.366,9.23,7.043,9.693,12.018c0.287,3.089-0.348,6.487-0.852,8.565c-2.663-4.936-0.679-9.29-5.163-14.535
	c1.812,4.196,1.465,5.36,1.641,8.621C63.946,99.556,64.48,101.986,65.679,104.217L65.679,104.217z M92.211,73.278
	c0.566-1.948,2.064-5.7,5.553-7.656c3.766-2.111,8.999-1.89,13.471-5.385c-1.02,4.954-4.176,10.833-8.821,12.671
	c-2.885,1.14-6.325,1.483-8.461,1.581c3.993-3.938,8.729-3.254,12.507-9.026c-3.52,2.915-4.735,2.908-7.816,3.989
	C96.2,70.309,94.017,71.503,92.211,73.278L92.211,73.278z M73.587,99.013c1.894,0.727,5.788,1.802,9.455,0.206
	c3.958-1.724,6.946-6.025,12.435-7.474c-4.562-2.184-11.154-3.224-15.426-0.635c-2.653,1.608-5.005,4.141-6.375,5.783
	c5.551-0.799,7.87-4.984,14.752-4.504c-4.45,1.042-5.179,2.014-7.904,3.814C78.364,97.631,76.093,98.648,73.587,99.013
	L73.587,99.013z M161.861,73.278c-0.566-1.948-2.064-5.7-5.553-7.656c-3.768-2.111-9-1.89-13.473-5.385
	c1.02,4.954,4.176,10.833,8.822,12.671c2.885,1.14,6.324,1.483,8.461,1.581c-3.992-3.938-8.729-3.254-12.508-9.026
	c3.521,2.915,4.736,2.908,7.816,3.989C157.873,70.309,160.057,71.503,161.861,73.278L161.861,73.278z M188.393,104.217
	c1.711-1.089,4.895-3.578,5.795-7.476c0.971-4.206-0.707-9.168,1.396-14.44c-4.471,2.366-9.23,7.043-9.693,12.018
	c-0.287,3.089,0.348,6.487,0.852,8.565c2.664-4.936,0.68-9.29,5.164-14.535c-1.812,4.196-1.467,5.36-1.641,8.621
	C190.127,99.556,189.592,101.986,188.393,104.217L188.393,104.217z M180.484,99.013c-1.893,0.727-5.787,1.802-9.455,0.206
	c-3.957-1.724-6.945-6.025-12.434-7.474c4.562-2.184,11.154-3.224,15.426-0.635c2.652,1.608,5.006,4.141,6.375,5.783
	c-5.551-0.799-7.869-4.984-14.752-4.504c4.449,1.042,5.18,2.014,7.904,3.814C175.709,97.631,177.98,98.648,180.484,99.013
	L180.484,99.013z M86.224,241.15c-11.459-8.142-36.816,5.011-44.557-8.746c-1.29,9.038,6.962,11.137,15.11,10.815
	c1.114-0.044,2.248-0.131,3.391-0.248c-4.338-0.396-10.324-1.725-12.34-3.03c5.993,1.759,13.26,1.958,20.077,1.604
	C72.335,241.315,81.025,239.674,86.224,241.15L86.224,241.15z"/>
<path fill-rule="evenodd" clip-rule="evenodd" fill="#FF6600" d="M7.887,115.522c-0.133,2.253-0.205,4.509-0.216,6.767
	c1.806-2.207,2.758-4.746,3.185-7.358c-0.579-1.727-0.955-3.536-1.18-5.348L7.887,115.522L7.887,115.522z M127.075,345.477
	c3.063,0,5.546,2.483,5.546,5.547s-2.482,5.547-5.546,5.547s-5.547-2.483-5.547-5.547S124.012,345.477,127.075,345.477
	L127.075,345.477z M134.199,351.222c11.584,1.578,6.793-13.04-1.678-4.793c1.139,0.926,2.699-0.953,4.998-1.307
	c-0.896,0.472-5.906,3.497-2.996,2.853l5.004-1.183l-4.744,1.983c-2.683,1.167,3.158,0.716,4.184,0.546
	C136.928,350.407,134.141,349.94,134.199,351.222L134.199,351.222z M129.465,344.308c5.08-10.528-10.304-10.489-5.078,0.115
	c1.232-0.797-0.072-2.862,0.302-5.158c0.172,0.998,1.501,6.699,1.787,3.732l0.422-5.125l0.42,5.125
	c0.281,2.912,1.657-2.783,1.813-3.811C129.532,341.462,128.228,343.968,129.465,344.308L129.465,344.308z M121.425,346.675
	c-8.443-8.085-13.16,6.559-1.46,4.865c-0.376-1.419-2.744-0.816-4.812-1.882c1.002,0.146,6.834,0.643,4.101-0.546l-4.743-1.984
	l5.004,1.184c2.856,0.633-2.134-2.436-3.063-2.902C118.74,345.731,120.72,347.746,121.425,346.675L121.425,346.675z
	 M121.192,355.052c-10.298,5.531,2.17,14.543,4.176,2.893c-1.465-0.081-1.625,2.357-3.276,3.994
	c0.448-0.908,2.723-6.301,0.748-4.069l-3.353,3.898l2.672-4.394c1.484-2.521-2.976,1.277-3.706,2.017
	C119.465,357.313,121.994,356.054,121.192,355.052L121.192,355.052z M129.088,357.862c2.078,11.504,14.5,2.43,4.041-3.077
	c-0.529,1.368,1.74,2.272,2.785,4.351c-0.725-0.707-5.15-4.538-3.639-1.97l2.672,4.394l-3.353-3.898
	c-1.938-2.191,0.295,3.225,0.772,4.147C130.705,360.204,130.288,357.41,129.088,357.862L129.088,357.862z M127.075,348.108
	c1.61,0,2.915,1.305,2.915,2.915c0,1.609-1.305,2.915-2.915,2.915c-1.609,0-2.915-1.306-2.915-2.915
	C124.16,349.413,125.466,348.108,127.075,348.108L127.075,348.108z M127.036,169.038C122.571,157.44,131.502,157.44,127.036,169.038
	L127.036,169.038z M127.036,186.23C122.571,174.633,131.502,174.633,127.036,186.23L127.036,186.23z M131.578,238.882
	c-0.588,0.809-1.012,1.795-1.191,2.927c-0.887,5.618,4.121,11.538,9.988,10.729c3.08-0.426,5.756-2.59,6.842-5.698
	c0.76-2.175,0.771-4.653,0.326-6.957c-0.908-4.692-3.523-9.201-6.047-13.21c-4.314-6.855-9.971-13.66-12.883-21.176
	c1.23,9.883,6.678,15.061,11.195,22.238c2.926,4.647,6.479,10.688,5.479,16.373c-1.002,5.695-7.391,7.523-11.193,3.723
	c-1.344-1.344-2.115-3.32-1.738-5.718c0.127-0.794,0.426-1.489,0.84-2.06c0.844-1.165,2.277-1.912,3.732-1.683
	c2.42,0.382,3.336,2.108,2.979,3.567c-0.193,0.796-0.926,1.514-1.932,1.635c0.453-0.283,0.754-0.787,0.754-1.36
	c0-1.677-2.287-2.19-2.992-0.822c-0.42,0.819-0.156,2.088,0.672,2.816c1.178,1.036,3.232,0.949,4.514-0.327
	c1.361-1.354,1.236-3.391,0.369-4.938C139.262,235.32,133.891,235.692,131.578,238.882L131.578,238.882z M122.495,238.882
	c0.587,0.809,1.012,1.795,1.19,2.927c0.887,5.618-4.12,11.538-9.988,10.729c-3.081-0.426-5.756-2.59-6.841-5.698
	c-0.76-2.175-0.773-4.653-0.327-6.957c0.909-4.692,3.522-9.201,6.046-13.21c4.315-6.855,9.972-13.66,12.883-21.176
	c-1.23,9.883-6.678,15.061-11.195,22.238c-2.926,4.647-6.478,10.688-5.477,16.373c1.001,5.695,7.39,7.523,11.191,3.723
	c1.344-1.344,2.117-3.32,1.739-5.718c-0.126-0.794-0.425-1.489-0.839-2.06c-0.845-1.165-2.279-1.912-3.733-1.683
	c-2.419,0.382-3.337,2.108-2.979,3.567c0.195,0.796,0.927,1.514,1.932,1.635c-0.453-0.283-0.754-0.787-0.754-1.36
	c0-1.677,2.289-2.19,2.992-0.822c0.421,0.819,0.157,2.088-0.671,2.816c-1.178,1.036-3.232,0.949-4.514-0.327
	c-1.361-1.354-1.236-3.391-0.368-4.938C114.811,235.32,120.182,235.692,122.495,238.882L122.495,238.882z M192.002,147.456
	c-3.152,0-5.928,1.617-7.541,4.065c-1.623-2.403-4.371-3.982-7.488-3.982c-4.221,0-7.764,2.896-8.752,6.81
	c-1.514-1.147-3.4-1.828-5.445-1.828c-4.986,0-9.029,4.042-9.029,9.027c0,0.707,0.082,1.395,0.236,2.054
	c-0.523-0.094-1.062-0.144-1.611-0.144c-4.986,0-9.029,4.042-9.029,9.027c0,2.505,1.021,4.771,2.668,6.407
	c-3.287,1.35-5.602,4.582-5.602,8.354c0,3.926,2.504,7.265,6.004,8.508c-1.453,1.603-2.338,3.729-2.338,6.061
	c0,4.986,4.043,9.027,9.029,9.027c0.352,0,0.701-0.02,1.043-0.061c-0.234,0.803-0.359,1.651-0.359,2.529
	c0,4.985,4.041,9.027,9.027,9.027c1.795,0,3.467-0.523,4.871-1.426c0.68,4.314,4.412,7.613,8.918,7.613
	c2.975,0,5.615-1.439,7.26-3.66c1.59,2.568,4.434,4.279,7.678,4.279c4.285,0,7.873-2.986,8.797-6.992
	c1.48,1.062,3.295,1.688,5.258,1.688c4.984,0,9.027-4.042,9.027-9.028c0-0.998-0.164-1.957-0.463-2.855
	c0.271,0.025,0.547,0.037,0.824,0.037c4.986,0,9.027-4.041,9.027-9.027c0-2.604-1.104-4.949-2.865-6.596
	c3.219-1.38,5.475-4.578,5.475-8.303c0-3.635-2.148-6.768-5.244-8.199c1.691-1.641,2.744-3.938,2.744-6.482
	c0-4.985-4.041-9.027-9.027-9.027c-0.164,0-0.328,0.005-0.488,0.014c0.242-0.817,0.373-1.682,0.373-2.578
	c0-4.985-4.041-9.027-9.027-9.027c-1.92,0-3.701,0.601-5.166,1.624C199.844,150.416,196.268,147.456,192.002,147.456
	L192.002,147.456z M176.973,150.537c-3.328,0-6.029,2.699-6.029,6.029c0,0.406,0.041,0.802,0.117,1.185
	c-1.006,0.293-1.988,0.624-2.951,0.989c-1.01-1.915-3.02-3.221-5.334-3.221c-3.33,0-6.031,2.7-6.031,6.029
	c0,1.271,0.395,2.451,1.066,3.423c-0.807,0.746-1.568,1.54-2.277,2.382c-0.92-0.568-2.004-0.896-3.162-0.896
	c-3.33,0-6.029,2.699-6.029,6.029c0,2.545,1.576,4.721,3.807,5.606c-0.244,1.007-0.436,2.05-0.578,3.128l-0.135-0.001
	c-3.33,0-6.029,2.7-6.029,6.029c0,3.33,2.699,6.029,6.029,6.029c0.195,0,0.387-0.01,0.578-0.027
	c0.203,1.015,0.455,2.019,0.752,3.008c-2.17,0.913-3.693,3.058-3.693,5.559c0,3.33,2.701,6.029,6.031,6.029
	c1.145,0,2.217-0.32,3.129-0.875c0.633,0.827,1.309,1.627,2.021,2.397c-0.914,1.058-1.469,2.436-1.469,3.944
	c0,3.329,2.699,6.029,6.029,6.029c2.121,0,3.986-1.097,5.061-2.753c0.941,0.473,1.914,0.907,2.916,1.303
	c-0.141,0.512-0.217,1.051-0.217,1.608c0,3.329,2.699,6.029,6.029,6.029c2.945,0,5.398-2.115,5.924-4.908l-0.008-0.191
	c0.354,0.021,0.709,0.041,1.068,0.053c0.674,0.023,1.334,0.035,1.984,0.034c-0.008,0.078-0.018,0.155-0.027,0.231
	c0.314,3.034,2.879,5.4,5.996,5.4c3.33,0,6.029-2.701,6.029-6.03c0-0.403-0.041-0.798-0.115-1.179
	c1.031-0.304,2.02-0.647,2.965-1.029c1.055,1.758,2.977,2.934,5.176,2.934c3.328,0,6.027-2.699,6.027-6.029
	c0-1.455-0.516-2.79-1.373-3.832c0.703-0.836,1.357-1.725,1.961-2.658c0.83,0.431,1.773,0.674,2.773,0.674
	c3.33,0,6.029-2.699,6.029-6.029c0-2.729-1.812-5.033-4.301-5.776c0.227-1.022,0.414-2.058,0.562-3.101
	c0.105,0.005,0.211,0.008,0.318,0.008c3.33,0,6.029-2.699,6.029-6.029c0-3.095-2.334-5.646-5.338-5.989
	c-0.309-0.035-0.643-0.035-0.98-0.009c-0.137-0.977-0.309-1.94-0.514-2.886c0.279-0.085,0.559-0.195,0.842-0.327
	c2.061-0.958,3.488-3.047,3.488-5.47c0-3.33-2.697-6.029-6.027-6.029c-1.322,0-2.15,0.315-2.924,0.839
	c-0.564-0.803-1.172-1.575-1.826-2.312c0.258-0.251,0.496-0.537,0.715-0.886c0.584-0.928,0.922-2.027,0.922-3.205
	c0-3.33-2.699-6.029-6.029-6.029c-2.225,0-4.17,1.206-5.215,3c-0.018,0.073-0.037,0.146-0.059,0.218
	c-0.92-0.399-1.877-0.762-2.871-1.087c0.033-0.07,0.068-0.139,0.104-0.208c0.08-0.39,0.121-0.794,0.121-1.208
	c0-3.33-2.699-6.029-6.029-6.029c-3.15,0-5.738,2.418-6.006,5.501c-0.43-0.013-0.865-0.021-1.303-0.023
	c-0.576-0.003-1.15,0.004-1.723,0.02C182.662,152.91,180.096,150.537,176.973,150.537L176.973,150.537z M62.075,147.456
	c3.153,0,5.927,1.617,7.542,4.065c1.622-2.403,4.37-3.982,7.487-3.982c4.221,0,7.765,2.896,8.753,6.81
	c1.514-1.147,3.4-1.828,5.446-1.828c4.986,0,9.028,4.042,9.028,9.027c0,0.707-0.082,1.395-0.235,2.054
	c0.523-0.094,1.062-0.144,1.612-0.144c4.986,0,9.027,4.042,9.027,9.027c0,2.505-1.02,4.771-2.667,6.407
	c3.287,1.35,5.602,4.582,5.602,8.354c0,3.926-2.505,7.265-6.003,8.508c1.452,1.603,2.336,3.729,2.336,6.061
	c0,4.986-4.042,9.027-9.027,9.027c-0.354,0-0.701-0.02-1.043-0.061c0.233,0.803,0.359,1.651,0.359,2.529
	c0,4.985-4.042,9.027-9.028,9.027c-1.794,0-3.467-0.523-4.872-1.426c-0.679,4.314-4.413,7.613-8.917,7.613
	c-2.976,0-5.614-1.439-7.259-3.66c-1.591,2.568-4.435,4.279-7.679,4.279c-4.286,0-7.874-2.986-8.797-6.992
	c-1.48,1.062-3.296,1.688-5.257,1.688c-4.986,0-9.027-4.042-9.027-9.028c0-0.998,0.163-1.957,0.462-2.855
	c-0.271,0.025-0.546,0.037-0.824,0.037c-4.986,0-9.027-4.041-9.027-9.027c0-2.604,1.103-4.949,2.866-6.596
	c-3.22-1.38-5.476-4.578-5.476-8.303c0-3.635,2.149-6.768,5.246-8.199c-1.693-1.641-2.745-3.938-2.745-6.482
	c0-4.985,4.042-9.027,9.027-9.027c0.164,0,0.327,0.005,0.489,0.014c-0.243-0.817-0.375-1.682-0.375-2.578
	c0-4.985,4.042-9.027,9.027-9.027c1.921,0,3.702,0.601,5.166,1.624C54.234,150.416,57.809,147.456,62.075,147.456L62.075,147.456z
	 M77.104,150.537c3.33,0,6.029,2.699,6.029,6.029c0,0.406-0.04,0.802-0.117,1.185c1.005,0.293,1.989,0.624,2.951,0.989
	c1.01-1.915,3.02-3.221,5.335-3.221c3.33,0,6.029,2.7,6.029,6.029c0,1.271-0.394,2.451-1.066,3.423
	c0.808,0.746,1.569,1.54,2.278,2.382c0.919-0.568,2.003-0.896,3.163-0.896c3.33,0,6.029,2.699,6.029,6.029
	c0,2.545-1.577,4.721-3.808,5.606c0.244,1.007,0.437,2.05,0.579,3.128l0.134-0.001c3.33,0,6.03,2.7,6.03,6.029
	c0,3.33-2.7,6.029-6.03,6.029c-0.194,0-0.387-0.01-0.577-0.027c-0.204,1.015-0.456,2.019-0.752,3.008
	c2.169,0.913,3.692,3.058,3.692,5.559c0,3.33-2.7,6.029-6.029,6.029c-1.146,0-2.218-0.32-3.13-0.875
	c-0.633,0.827-1.308,1.627-2.021,2.397c0.915,1.058,1.469,2.436,1.469,3.944c0,3.329-2.7,6.029-6.029,6.029
	c-2.122,0-3.987-1.097-5.062-2.753c-0.94,0.473-1.913,0.907-2.915,1.303c0.141,0.512,0.217,1.051,0.217,1.608
	c0,3.329-2.7,6.029-6.03,6.029c-2.946,0-5.398-2.115-5.924-4.908l0.008-0.191c-0.354,0.021-0.709,0.041-1.068,0.053
	c-0.673,0.023-1.334,0.035-1.985,0.034c0.009,0.078,0.019,0.155,0.029,0.231c-0.316,3.034-2.88,5.4-5.997,5.4
	c-3.33,0-6.029-2.701-6.029-6.03c0-0.403,0.04-0.798,0.116-1.179c-1.033-0.304-2.021-0.647-2.966-1.029
	c-1.054,1.758-2.977,2.934-5.175,2.934c-3.33,0-6.029-2.699-6.029-6.029c0-1.455,0.516-2.79,1.375-3.832
	c-0.705-0.836-1.358-1.725-1.962-2.658c-0.83,0.431-1.773,0.674-2.773,0.674c-3.33,0-6.029-2.699-6.029-6.029
	c0-2.729,1.812-5.033,4.3-5.776c-0.227-1.022-0.413-2.058-0.562-3.101c-0.106,0.005-0.212,0.008-0.319,0.008
	c-3.33,0-6.029-2.699-6.029-6.029c0-3.095,2.334-5.646,5.338-5.989c0.31-0.035,0.643-0.035,0.981-0.009
	c0.137-0.977,0.309-1.94,0.514-2.886c-0.28-0.085-0.558-0.195-0.842-0.327c-2.061-0.958-3.489-3.047-3.489-5.47
	c0-3.33,2.699-6.029,6.029-6.029c1.321,0,2.149,0.315,2.923,0.839c0.564-0.803,1.172-1.575,1.827-2.312
	c-0.258-0.251-0.497-0.537-0.716-0.886c-0.583-0.928-0.921-2.027-0.921-3.205c0-3.33,2.699-6.029,6.029-6.029
	c2.226,0,4.169,1.206,5.214,3c0.019,0.073,0.039,0.146,0.06,0.218c0.919-0.399,1.876-0.762,2.871-1.087
	c-0.034-0.07-0.068-0.139-0.104-0.208c-0.079-0.39-0.121-0.794-0.121-1.208c0-3.33,2.7-6.029,6.029-6.029
	c3.151,0,5.739,2.418,6.006,5.501c0.43-0.013,0.864-0.021,1.303-0.023c0.576-0.003,1.149,0.004,1.722,0.02
	C71.414,152.91,73.982,150.537,77.104,150.537L77.104,150.537z M130.193,34.891c0.164,3.539-0.602,7.171-3.173,10.478
	c-2.57-3.306-3.336-6.939-3.171-10.477c0.919-1.56,1.66-3.25,2.253-4.979l0.922,11.223l0.921-11.207
	C128.537,31.651,129.275,33.335,130.193,34.891L130.193,34.891z M153.232,13.542c3.416,0.937,6.635,2.787,8.984,6.254
	c-3.938,1.423-7.629,1.029-10.943-0.221c-1.199-1.356-2.578-2.583-4.039-3.682l10.959,2.592l-10.375-4.34
	C149.639,14.115,151.469,13.934,153.232,13.542L153.232,13.542z M112.849,14.833c-30.738,16.511,6.48,43.407,12.463,8.632
	c-4.371-0.24-4.847,7.037-9.778,11.924c1.337-2.712,8.129-18.81,2.233-12.147l-10.008,11.636l7.975-13.113
	c4.431-7.524-8.883,3.812-11.062,6.021C107.693,21.586,115.24,17.825,112.849,14.833L112.849,14.833z M102.769,19.575
	c-3.314,1.25-7.006,1.645-10.944,0.221c2.35-3.467,5.568-5.317,8.984-6.253c1.767,0.393,3.602,0.575,5.43,0.604l-10.388,4.344
	l10.942-2.587C105.338,16.999,103.964,18.222,102.769,19.575L102.769,19.575z M110.903,9.579c-3.371,0.396-6.726,0.912-10.05,1.558
	c2.977,0.748,6.701,0.927,11.272,0.266C111.915,10.605,111.492,10.022,110.903,9.579L110.903,9.579z M133.861,8.8
	c-0.227,3.58-3.202,6.415-6.841,6.415c-3.637,0-6.613-2.835-6.839-6.415c-2.062,0.102-4.12,0.256-6.174,0.451
	c0.458,6.789,6.108,12.154,13.013,12.154s12.556-5.365,13.013-12.154C137.98,9.057,135.922,8.902,133.861,8.8L133.861,8.8z
	 M153.193,11.139c-3.281-0.639-6.594-1.148-9.922-1.543c-0.654,0.439-1.02,1.025-0.98,1.857
	C146.693,12.053,150.299,11.866,153.193,11.139L153.193,11.139z M128.8,23.84c6.204,34.335,43.284,7.25,12.062-9.186
	c-1.58,4.083,5.193,6.784,8.318,12.985c-2.166-2.11-15.377-13.543-10.863-5.878l7.975,13.114l-10.008-11.637
	c-5.787-6.539,0.881,9.626,2.307,12.38C133.629,30.829,132.385,22.49,128.8,23.84L128.8,23.84z M239.281,81.807
	c-3.615,0.961-5.906,4.609-5.139,8.23c0.781,3.675,4.418,5.932,8.127,5.04c0.309-0.074,0.605-0.167,0.895-0.278
	c0.172,0.726,0.336,1.453,0.494,2.181c-5.594,1.4-12.498-0.879-12.627-8.418c-1.707,8.046,5.697,12.215,13.068,10.552
	c0.113,0.576,0.223,1.152,0.328,1.729c-0.289,0.091-0.584,0.173-0.881,0.245c-7.059,1.698-13.984-2.596-15.469-9.592
	c-1.402-6.607,2.551-13.26,8.941-15.409C237.826,77.972,238.58,79.88,239.281,81.807L239.281,81.807z M226.562,57.073
	c0.664,0.961,1.316,1.933,1.951,2.923c2.846,4.442,5.355,9.076,7.525,13.862c-0.742,2.997-6.697-9.357-7.654-11.884
	c0.225,6.878,5.582,13.221,2.172,15.078C223.703,68.396,223.703,61.42,226.562,57.073L226.562,57.073z M223.287,68.838
	c-2.518-2.416-5.729-4.183-9.91-4.365c0.729,4.098,2.912,7.031,5.65,9.194c1.775,0.309,3.527,0.838,5.211,1.506l-7.717-7.964
	l8.939,6.55C224.58,72.195,223.826,70.542,223.287,68.838L223.287,68.838z M226.535,95.023
	c-32.902,12.723-27.883-33.021,1.959-15.076c-2.758,3.484-8.48-0.862-15.422-0.269c2.912,0.736,19.426,5.981,10.52,6.159
	L208.23,85.93l15.094,2.412c8.562,1.495-8.797,4.298-11.898,4.528C218.059,94.58,225.918,91.267,226.535,95.023L226.535,95.023z
	 M216.244,99.631c-3.154,1.715-5.926,4.27-7.514,8.191c4.152,0.454,7.688-0.799,10.678-2.794c0.895-1.6,1.992-3.116,3.197-4.527
	l-10.203,5.1l9.271-6.66C219.883,99.341,218.053,99.596,216.244,99.631L216.244,99.631z M242.305,103.872
	c0.996,34.804-40.916,17.244-13.709-6.077c2.387,3.593-3.691,7.812-5.475,14.569c1.686-2.56,12.275-16.776,9.432-8.269
	l-5.111,14.614l7.406-13.659c4.324-7.714,1.121,9.555,0.291,12.566C239.014,111.797,238.516,103.406,242.305,103.872
	L242.305,103.872z M246.186,115.522c0.133,2.253,0.205,4.509,0.217,6.767c-1.807-2.207-2.758-4.746-3.186-7.358
	c0.578-1.727,0.955-3.536,1.18-5.348L246.186,115.522L246.186,115.522z M153.248,122.296c3.416,0.937,6.635,2.787,8.984,6.254
	c-3.938,1.423-7.631,1.029-10.943-0.221c-1.199-1.357-2.578-2.583-4.039-3.682l10.959,2.592l-10.375-4.339
	C149.654,122.869,151.484,122.688,153.248,122.296L153.248,122.296z M140.064,93.786c1.947-2.959,4.701-5.449,8.725-6.612
	c0.137,4.186-1.381,7.575-3.594,10.34c-1.66,0.721-3.252,1.653-4.748,2.704l5.852-9.622l-7.332,8.524
	C139.5,97.38,139.893,95.583,140.064,93.786L140.064,93.786z M108.876,97.515c-2.213-2.766-3.729-6.155-3.593-10.341
	c4.023,1.164,6.778,3.652,8.724,6.612c0.172,1.802,0.566,3.604,1.103,5.352l-7.342-8.538l5.842,9.608
	C112.12,99.163,110.532,98.234,108.876,97.515L108.876,97.515z M102.784,128.329c-3.314,1.25-7.006,1.645-10.944,0.222
	c2.35-3.467,5.568-5.317,8.984-6.254c1.767,0.393,3.602,0.575,5.43,0.604l-10.388,4.344l10.942-2.587
	C105.354,125.753,103.98,126.976,102.784,128.329L102.784,128.329z M130.209,143.645c0.164,3.539-0.602,7.172-3.173,10.478
	c-2.57-3.306-3.336-6.939-3.171-10.477c0.919-1.56,1.66-3.249,2.253-4.979l0.922,11.223l0.921-11.207
	C128.553,140.405,129.291,142.089,130.209,143.645L130.209,143.645z M27.509,57.073c-0.664,0.961-1.316,1.933-1.951,2.923
	c-2.846,4.442-5.355,9.076-7.524,13.862c0.742,2.997,6.696-9.357,7.653-11.884c-0.225,6.878-5.582,13.221-2.172,15.078
	C30.369,68.396,30.369,61.42,27.509,57.073L27.509,57.073z M30.786,68.838c2.517-2.416,5.728-4.183,9.91-4.365
	c-0.729,4.098-2.913,7.031-5.651,9.194c-1.776,0.309-3.527,0.838-5.21,1.506l7.715-7.964l-8.94,6.55
	C29.492,72.195,30.247,70.542,30.786,68.838L30.786,68.838z M27.539,95.023c32.902,12.723,27.882-33.021-1.959-15.076
	c2.758,3.484,8.48-0.862,15.421-0.269c-2.913,0.736-19.427,5.981-10.521,6.159l15.362,0.092l-15.093,2.412
	c-8.563,1.495,8.796,4.298,11.899,4.528C36.014,94.58,28.154,91.267,27.539,95.023L27.539,95.023z M14.791,81.807
	c3.615,0.961,5.907,4.609,5.139,8.23c-0.78,3.675-4.418,5.932-8.127,5.04c-0.308-0.074-0.605-0.167-0.894-0.278
	c-0.171,0.726-0.336,1.453-0.494,2.181c5.592,1.4,12.497-0.879,12.625-8.418c1.708,8.046-5.696,12.215-13.067,10.552
	c-0.114,0.576-0.223,1.152-0.329,1.729c0.29,0.091,0.583,0.173,0.881,0.245c7.059,1.698,13.983-2.596,15.468-9.592
	c1.402-6.607-2.551-13.26-8.942-15.409C16.247,77.972,15.493,79.88,14.791,81.807L14.791,81.807z M37.829,99.631
	c3.154,1.715,5.926,4.27,7.514,8.191c-4.152,0.454-7.688-0.799-10.678-2.794c-0.895-1.6-1.993-3.116-3.198-4.527l10.203,5.1
	l-9.271-6.66C34.189,99.341,36.02,99.596,37.829,99.631L37.829,99.631z M11.768,103.872c-0.996,34.804,40.916,17.244,13.71-6.077
	c-2.389,3.593,3.691,7.812,5.475,14.569c-1.688-2.56-12.276-16.776-9.432-8.269l5.11,14.614l-7.407-13.659
	c-4.323-7.714-1.121,9.555-0.291,12.566C15.059,111.797,15.558,103.406,11.768,103.872L11.768,103.872z"/>
<path fill-rule="evenodd" clip-rule="evenodd" fill="#FFFFFF" d="M107.221,29.94c2.007-1.867,4.321-4.041,5.999-6.197
	c1.459-1.877,0.83-2.382-0.795-0.724C110.218,25.269,108.6,27.524,107.221,29.94L107.221,29.94z M62.51,296.442
	c-3.739-3.505-3.123-9.569-2.75-14.986c0.433-6.31-1.316-13.775-7.498-17.178c3.932,5.132,5.568,11.264,4.958,17.558
	c-1.352-7.431-6.435-16.02-14.179-19.877c7.611,6.007,10.795,16.622,12.012,24.183c1.373,8.521,2.277,19.023,5.423,26.866
	c3.452,8.604,11.151,10.144,19.22,12.135c4.542,1.121,10.749,2.624,13.983,6.474c3.286-1.347,6.532-2.428,10.184-0.918
	c4.556,1.881,6.877,5.818,13.578,6.889c-5.216,2.955-11.66,6.533-17.633,3.064c-1.441-0.837-2.755-1.965-3.987-3.209
	c0.023,2.649-1.029,5.34-3.143,6.956c-1.261,0.964-2.784,1.416-4.36,1.454c-1.068,0.025-2.137-0.17-3.119-0.592
	c-1.062-0.457-2.015-1.174-2.712-2.1c-0.705-0.938-1.117-2.057-1.146-3.233c-0.02-0.837,0.15-1.655,0.48-2.425
	c1.107-2.578,4.411-3.773,6.938-2.598c1.623,0.754,2.471,2.396,1.89,4.139c-0.372,1.117-1.395,1.894-2.574,1.949
	c-1.575,0.076-2.913-1.141-2.988-2.716c-0.014-0.3,0.019-0.599,0.096-0.885c-0.451,0.254-0.797,0.642-1.003,1.124
	c-0.183,0.426-0.291,0.883-0.279,1.35c0.016,0.639,0.25,1.242,0.633,1.752c0.429,0.569,1.026,1.004,1.678,1.284
	c0.645,0.276,1.345,0.408,2.045,0.392c1.03-0.025,2.041-0.299,2.867-0.931c2.35-1.796,2.56-5.979,0.825-8.249
	c-2.769-3.623-9.491-5.072-13.719-6.115c-0.384-0.096-0.765-0.19-1.142-0.286c3.064,4.088,2.703,9.942,2.361,14.864
	c-3.856-5.582-8.411-5.977-12.075-9.274c-3.424-3.081-3.436-7.187-3.661-11.358c-2.297-1.913-4.194-4.453-5.612-7.988
	c-4.902-12.221-2.847-32.274-12.149-42.818l0.552,1.836c2.377,7.934,3.736,16.242,3.736,24.502c0,7.021,0.285,14.701,1.956,21.545
	c1.171,4.8,3.068,9.229,6.464,12.884c0.462,0.497,0.944,0.972,1.444,1.425c-2.374-3.932-5.052-9.979-4.318-18.404
	c2.461,16.363,12.912,20.292,20.489,32.408c2.861,4.572,5.405,8.974,9.107,12.739c7.215,7.343,17.105,7.43,27.071,0.994
	c0.607,6.972,11.054,10.292,14.568,3.1l0.016,0.032l0.016-0.032c3.515,7.192,13.96,3.872,14.567-3.1
	c9.967,6.436,19.857,6.349,27.072-0.994c3.701-3.766,6.246-8.167,9.107-12.739c7.576-12.116,18.027-16.045,20.488-32.408
	c0.734,8.426-1.943,14.473-4.318,18.404c0.5-0.453,0.982-0.928,1.445-1.425c3.396-3.654,5.293-8.084,6.463-12.884
	c1.672-6.844,1.957-14.524,1.957-21.545c0-8.26,1.357-16.568,3.734-24.502l0.553-1.836c-9.303,10.544-7.246,30.598-12.148,42.818
	c-1.418,3.535-3.314,6.075-5.611,7.988c-0.227,4.172-0.236,8.277-3.662,11.358c-3.664,3.298-8.219,3.692-12.074,9.274
	c-0.342-4.922-0.703-10.776,2.361-14.864c-0.377,0.096-0.758,0.19-1.143,0.286c-4.227,1.043-10.949,2.492-13.719,6.115
	c-1.734,2.27-1.525,6.453,0.824,8.249c0.828,0.632,1.838,0.905,2.867,0.931c0.701,0.017,1.402-0.115,2.047-0.392
	c0.652-0.28,1.248-0.715,1.678-1.284c0.383-0.51,0.617-1.113,0.633-1.752c0.012-0.467-0.096-0.924-0.279-1.35
	c-0.207-0.482-0.553-0.87-1.004-1.124c0.078,0.286,0.111,0.585,0.096,0.885c-0.074,1.575-1.412,2.792-2.988,2.716
	c-1.178-0.056-2.201-0.832-2.574-1.949c-0.58-1.743,0.268-3.385,1.891-4.139c2.527-1.176,5.83,0.02,6.938,2.598
	c0.33,0.77,0.5,1.588,0.48,2.425c-0.027,1.177-0.439,2.296-1.145,3.233c-0.697,0.926-1.65,1.643-2.713,2.1
	c-0.982,0.422-2.051,0.617-3.119,0.592c-1.576-0.038-3.1-0.49-4.359-1.454c-2.115-1.616-3.166-4.307-3.145-6.956
	c-1.23,1.244-2.545,2.372-3.986,3.209c-5.973,3.469-12.418-0.109-17.633-3.064c6.699-1.07,9.021-5.008,13.578-6.889
	c3.65-1.51,6.896-0.429,10.184,0.918c3.234-3.85,9.441-5.353,13.982-6.474c8.068-1.991,15.768-3.53,19.219-12.135
	c3.146-7.843,4.053-18.345,5.424-26.866c1.217-7.561,4.4-18.176,12.012-24.183c-7.744,3.857-12.826,12.446-14.178,19.877
	c-0.611-6.294,1.025-12.426,4.957-17.558c-6.182,3.402-7.932,10.868-7.498,17.178c0.373,5.424,0.99,11.496-2.764,14.999
	c0.623,0.436,1.146,1.011,1.502,1.735c0.234,0.479,0.199,0.373,0.324,0.909c0.4,1.71,0.363,3.507,0.033,5.225
	c-0.422,2.209-1.369,4.501-2.703,6.317c-1.346,1.834-3.426,3.553-5.867,3.035c0-0.001-0.002-0.001-0.002-0.001
	c-0.258,0.437-0.535,0.856-0.828,1.256c-1.432,1.95-3.666,3.851-6.271,3.298c-0.148-0.031-0.295-0.07-0.436-0.117
	c-0.066,0.096-0.135,0.189-0.203,0.283c-1.469,2.002-3.77,3.98-6.447,3.411c-0.502-0.106-0.953-0.29-1.357-0.536
	c-0.129,0.193-0.262,0.383-0.398,0.568c-1.469,2.002-3.77,3.98-6.447,3.41c-0.752-0.159-1.383-0.486-1.91-0.928
	c-0.041,0.06-0.084,0.119-0.127,0.179c-1.545,2.164-4.006,4.415-6.898,3.813c-1.068-0.222-1.896-0.76-2.533-1.482
	c-1.414,1.994-3.508,3.834-6.09,3.481c-1.305-0.177-2.285-0.833-3.025-1.733c-1.414,2.072-3.562,4.056-6.236,3.691
	c-1.846-0.252-3.074-1.441-3.887-3.088c-0.205,0.362-0.423,0.709-0.654,1.039c-0.968,1.375-2.26,2.66-4.065,2.66
	c-1.805,0-3.097-1.285-4.065-2.66c-0.231-0.329-0.45-0.677-0.654-1.039c-0.812,1.646-2.042,2.836-3.887,3.088
	c-2.673,0.364-4.823-1.619-6.236-3.691c-0.74,0.9-1.722,1.557-3.025,1.733c-2.583,0.353-4.677-1.487-6.09-3.481
	c-0.638,0.723-1.465,1.261-2.533,1.482c-2.893,0.602-5.354-1.649-6.9-3.813c-0.042-0.06-0.084-0.119-0.126-0.179
	c-0.526,0.441-1.157,0.769-1.91,0.928c-2.679,0.57-4.978-1.408-6.447-3.41c-0.136-0.186-0.269-0.375-0.397-0.568
	c-0.405,0.246-0.857,0.43-1.357,0.536c-2.679,0.569-4.979-1.409-6.448-3.411c-0.068-0.094-0.136-0.188-0.203-0.283
	c-0.142,0.047-0.288,0.086-0.436,0.117c-2.606,0.553-4.841-1.348-6.272-3.298c-0.293-0.399-0.57-0.819-0.828-1.256
	c-0.001,0-0.002,0-0.003,0.001c-2.44,0.518-4.521-1.201-5.867-3.035c-1.334-1.816-2.281-4.108-2.703-6.317
	c-0.329-1.718-0.367-3.515,0.033-5.225c0.125-0.536,0.09-0.43,0.325-0.909C61.349,297.458,61.879,296.88,62.51,296.442
	L62.51,296.442z M98.951,343.989c1.237,0,2.24,1.004,2.24,2.24c0,1.238-1.003,2.24-2.24,2.24s-2.24-1.002-2.24-2.24
	C96.711,344.993,97.714,343.989,98.951,343.989L98.951,343.989z M155.121,343.989c-1.236,0-2.24,1.004-2.24,2.24
	c0,1.238,1.004,2.24,2.24,2.24c1.238,0,2.24-1.002,2.24-2.24C157.361,344.993,156.359,343.989,155.121,343.989L155.121,343.989z
	 M110.363,356.315c1.807-1.064,3.561-2.096,5.42-2.83c-1.166-0.275-2.257-0.789-3.153-1.643c-1.583-1.506-2.121-3.741-1.443-5.811
	c0.67-2.048,2.398-3.525,4.54-3.824c2.4-0.334,4.651,0.83,6.444,2.35c-0.945-2.212-1.413-4.781-0.34-7.021
	c0.944-1.971,2.903-3.173,5.08-3.168c2.155,0.005,4.095,1.191,5.04,3.137c1.059,2.179,0.648,4.68-0.243,6.854
	c1.812-1.582,4.11-2.82,6.571-2.492c2.166,0.287,3.914,1.779,4.582,3.853c0.662,2.05,0.133,4.261-1.426,5.763
	c-1.041,1.002-2.354,1.543-3.74,1.779c2.082,0.739,4.016,1.877,6.014,3.053l0.408,0.236c0.326,0.137,0.654,0.25,0.984,0.337
	c1.768,0.469,3.936,0.324,5.346-0.952c0.23-0.209,0.432-0.438,0.6-0.675c0.459-0.649,0.719-1.413,0.73-2.155
	c0.02-1.517-1.191-2.879-2.732-2.876c-0.441,0.001-0.873,0.14-1.221,0.45c-0.438,0.392-0.678,1.045-0.549,1.615
	c0.598-0.405,1.361-0.424,1.986,0.119c1.848,1.603-0.943,4.517-3.287,1.893c-1.314-1.471-0.951-3.847,0.496-5.139
	c0.752-0.673,1.656-0.974,2.57-0.976c2.672-0.006,4.805,2.287,4.77,4.938c-0.016,1.15-0.41,2.32-1.105,3.305
	c-0.26,0.367-0.557,0.707-0.887,1.006c-0.84,0.761-1.867,1.259-2.977,1.516c4.121,1.754,8.662,2.651,12.799,0.627
	c1.951-0.955,3.787-2.775,4.059-5.02c0.043-0.367,0.047-0.729,0.014-1.072c-0.094-0.942-0.455-1.83-1.025-2.504
	c-1.162-1.379-3.311-1.658-4.691-0.456c-0.398,0.345-0.676,0.806-0.746,1.354c-0.088,0.693,0.205,1.467,0.764,1.879
	c0.223-0.83,0.893-1.44,1.879-1.44c2.906,0,2.668,4.792-1.479,4.261c-2.328-0.297-3.852-2.715-3.559-5.002
	c0.152-1.19,0.73-2.164,1.549-2.879c2.395-2.085,6.098-1.688,8.129,0.721c0.883,1.047,1.441,2.402,1.584,3.829
	c0.051,0.532,0.049,1.068-0.014,1.594c-0.178,1.469-0.805,2.829-1.732,3.997c-0.953,1.201-2.234,2.203-3.672,2.906
	c-6.898,3.378-14.287,0.217-20.25-3.29c-1.508-0.888-2.975-1.751-4.473-2.403c0.619,0.816,1.076,1.744,1.268,2.79
	c0.395,2.149-0.484,4.272-2.248,5.549c-1.746,1.263-4.012,1.442-5.92,0.425c-2.139-1.141-3.276-3.404-3.833-5.688
	c-0.535,2.345-1.668,4.698-3.852,5.879c-1.921,1.039-4.213,0.86-5.972-0.423c-1.741-1.271-2.612-3.37-2.233-5.501
	c0.23-1.297,0.868-2.414,1.724-3.363c-1.784,0.674-3.508,1.688-5.288,2.735c-5.963,3.507-13.35,6.668-20.25,3.29
	c-1.436-0.703-2.718-1.705-3.672-2.906c-0.926-1.168-1.553-2.528-1.731-3.997c-0.063-0.525-0.066-1.062-0.014-1.594
	c0.142-1.427,0.7-2.782,1.583-3.829c2.033-2.408,5.735-2.806,8.129-0.721c0.819,0.715,1.398,1.688,1.55,2.879
	c0.292,2.287-1.231,4.705-3.559,5.002c-4.147,0.531-4.385-4.261-1.478-4.261c0.986,0,1.656,0.61,1.878,1.44
	c0.559-0.412,0.853-1.186,0.764-1.879c-0.07-0.549-0.349-1.01-0.745-1.354c-1.381-1.202-3.53-0.923-4.693,0.456
	c-0.57,0.674-0.931,1.562-1.024,2.504c-0.034,0.344-0.031,0.705,0.014,1.072c0.271,2.244,2.107,4.064,4.059,5.02
	c4.135,2.024,8.678,1.127,12.797-0.627c-1.108-0.257-2.135-0.755-2.976-1.516c-0.33-0.299-0.627-0.639-0.887-1.006
	c-0.696-0.984-1.089-2.154-1.104-3.305c-0.036-2.651,2.098-4.944,4.768-4.938c0.915,0.002,1.819,0.303,2.572,0.976
	c1.446,1.292,1.811,3.668,0.495,5.139c-2.342,2.624-5.134-0.29-3.287-1.893c0.626-0.543,1.389-0.524,1.987-0.119
	c0.128-0.57-0.112-1.224-0.55-1.615c-0.347-0.311-0.778-0.449-1.221-0.45c-1.54-0.003-2.751,1.359-2.73,2.876
	c0.01,0.742,0.27,1.506,0.729,2.155c0.168,0.237,0.37,0.466,0.6,0.675c1.41,1.276,3.579,1.421,5.345,0.952
	c0.33-0.087,0.659-0.2,0.985-0.337L110.363,356.315L110.363,356.315z M127.036,49.167l-0.016,0.02l-1.85-2.379
	c-2.174-2.796-3.253-5.766-3.581-8.805c-1.143,1.272-2.471,2.365-4.013,3.199c-4.435,2.398-9.685,1.97-13.739-0.991
	c-3.509-2.562-5.486-6.558-5.343-10.806c-2.924,2.388-6.467,3.9-10.274,4.937l0.001,0.009l-0.104,0.019
	c-0.459,0.124-0.922,0.241-1.389,0.352c-0.253,0.083-0.5,0.176-0.74,0.279c-2.038,0.875-4.001,2.636-4.393,4.91
	c-0.064,0.372-0.085,0.74-0.068,1.093c0.047,0.965,0.37,1.888,0.916,2.604c1.116,1.464,3.292,1.859,4.761,0.704
	c0.422-0.332,0.729-0.787,0.829-1.343c0.125-0.702-0.135-1.506-0.683-1.954c-0.269,0.834-0.982,1.423-1.988,1.373
	c-2.963-0.148-2.477-5.021,1.724-4.267c2.357,0.421,3.788,2.962,3.373,5.279c-0.215,1.206-0.854,2.169-1.726,2.856
	c-2.546,2.003-6.3,1.41-8.25-1.149c-0.847-1.111-1.347-2.522-1.418-3.983c-0.026-0.546,0.003-1.092,0.095-1.624
	c0.233-1.355,0.841-2.6,1.707-3.674c-4.595,0.687-9.246,1.075-13.416,1.77c-6.27,1.045-13.615,1.117-17.913,6.227
	c-1.804,2.144-3.003,4.792-2.742,7.546c0.236,2.492,2.1,5.114,4.539,5.558c1.024,0.187,2.048-0.029,2.977-0.476
	c0.632-0.303,1.196-0.739,1.644-1.278c0.453-0.547,0.788-1.206,0.91-1.908c0.109-0.626,0.044-1.272-0.233-1.848
	c-0.202-0.419-0.506-0.778-0.863-1.075c-0.403-0.334-0.888-0.523-1.405-0.544c0.2,0.22,0.364,0.47,0.489,0.744
	c0.649,1.437,0.011,3.129-1.426,3.779c-1.076,0.486-2.34,0.259-3.179-0.566c-1.311-1.288-1.302-3.135-0.2-4.545
	c1.715-2.197,5.2-2.635,7.36-0.842c0.644,0.535,1.168,1.186,1.531,1.94c0.51,1.061,0.653,2.245,0.451,3.4
	c-0.199,1.142-0.722,2.213-1.46,3.103c-0.683,0.823-1.546,1.484-2.508,1.947c-1.42,0.684-2.982,0.974-4.544,0.688
	c-3.692-0.672-6.477-4.212-6.894-7.841c-0.48-4.329,1.186-7.794,3.904-10.489c5.868-5.815,15.8-6.284,23.635-7.42
	c1.991-0.289,4.006-0.566,6.014-0.884c-3.563-1.843-6.343-5.416-8.739-8.536c6.587,1.626,10.26-1.096,15.188-1.053
	c4.026,0.035,6.616,2.381,9.164,4.958c2.46-1.352,4.715-3.086,6.668-5.362c-2.787,0.474-5.716,0.297-8.793-0.815l-2.834-1.024
	l1.691-2.495c1.987-2.933,4.478-4.876,7.267-6.126c-0.211-0.094-0.42-0.192-0.627-0.294l-0.008-0.005
	c-26.707,6.127-51.208,20.462-67.588,43.01l0.005,0.018c1.069,1.402,1.865,3.03,2.31,4.82c0.432,1.738,0.517,3.483,0.337,5.201
	c2.476-1.716,5.405-2.817,8.942-2.97l3.01-0.13l-0.525,2.948c-0.616,3.466-2.097,6.209-4.134,8.424
	c1.637,0.045,3.267,0.326,4.853,0.904l0.022-0.037c0.086,0.049,0.173,0.097,0.26,0.144c0.459,0.179,0.903,0.38,1.332,0.603
	c0.18,0.066,0.36,0.125,0.541,0.179c2.127,0.628,4.763,0.527,6.516-0.973c0.287-0.246,0.538-0.515,0.75-0.798
	c0.58-0.772,0.921-1.688,0.958-2.589c0.077-1.839-1.346-3.533-3.214-3.582c-0.536-0.014-1.063,0.14-1.495,0.504
	c-0.545,0.46-0.858,1.245-0.723,1.94c0.739-0.471,1.665-0.468,2.406,0.213c2.186,2.006-1.3,5.445-4.051,2.183
	c-1.545-1.83-1.023-4.698,0.775-6.216c0.936-0.791,2.043-1.124,3.152-1.096c3.239,0.085,5.749,2.938,5.615,6.153
	c-0.059,1.396-0.575,2.801-1.453,3.97c-0.329,0.437-0.7,0.837-1.11,1.189c-1.147,0.981-2.559,1.571-4.06,1.81
	c-0.26,0.041-0.523,0.072-0.788,0.092c1.816,2.055,2.976,4.657,3.272,7.493c0.519,4.95-1.698,9.589-5.932,12.103
	c-1.511,0.896-3.146,1.465-4.844,1.774c2.475,1.871,4.515,4.346,5.857,7.661l1.143,2.822l-2.988,0.327
	c-2.194,0.239-4.234,0.08-6.14-0.394c1.714,2.298,3.042,5,3.763,7.808c1.027,4.001,0.834,8.236-1.197,11.878
	c-2.099,3.763-5.718,5.999-9.937,8.604c-0.516,0.318-1.044,0.644-1.782,1.108c-1.641,1.032-3.18,2.205-4.392,3.56
	c-1.748,1.955-2.74,4.237-2.606,6.872c0.13,2.545,1.243,4.679,3.688,5.631c2.312,0.9,5.255,0.56,6.569-1.292
	c1.481-2.087,0.761-5.357-1.663-6.301c-0.055-0.021-0.11-0.042-0.166-0.06c0.117,0.329,0.181,0.683,0.181,1.051
	c0,1.731-1.403,3.134-3.134,3.134s-3.134-1.403-3.134-3.134c0-1.32,0.742-2.613,1.87-3.357c2.522-1.665,6.312-0.725,8.191,1.592
	c2.34,2.884,2.089,7.328-0.706,9.83c-2.382,2.132-6.008,2.513-9.012,1.373c-3.586-1.36-5.482-4.565-5.673-8.314
	c-0.175-3.421,1.096-6.475,3.369-9.017c1.426-1.595,3.179-2.938,5.024-4.099c0.477-0.3,1.148-0.714,1.805-1.12
	c3.862-2.384,7.176-4.431,8.895-7.513c1.627-2.918,1.765-6.379,0.916-9.687c-0.662-2.581-1.919-5.058-3.538-7.118
	c0.122,0.817,0.177,1.646,0.155,2.486c-0.129,5.03-3.12,9.271-7.712,11.168c-3.671,1.517-7.752,1.28-11.204-0.617
	c-0.409,0.418-0.774,0.857-1.086,1.316c-1.247,1.834-1.955,4.375-1.061,6.502c0.146,0.348,0.327,0.669,0.531,0.958
	c0.559,0.788,1.328,1.392,2.173,1.703c1.729,0.634,3.775-0.205,4.391-1.969c0.177-0.506,0.191-1.056-0.024-1.578
	c-0.272-0.66-0.924-1.197-1.627-1.28c0.223,0.847-0.062,1.728-0.937,2.227c-2.577,1.471-4.79-2.898-0.844-4.524
	c2.214-0.914,4.786,0.458,5.684,2.634c0.467,1.132,0.447,2.289,0.083,3.336c-1.068,3.059-4.551,4.579-7.572,3.471
	c-1.312-0.481-2.492-1.401-3.338-2.594c-0.316-0.446-0.584-0.922-0.794-1.42c-0.585-1.392-0.717-2.916-0.485-4.418
	c0.237-1.547,0.868-3.084,1.785-4.433c0.312-0.458,0.668-0.901,1.062-1.327c-0.095-0.078-0.188-0.156-0.281-0.237
	c-1.367-1.184-2.461-2.577-3.332-4.103c-0.875,2.656-2.368,5.104-4.728,7.199c0.129,5.933,0.675,11.856,1.625,17.712
	c1.266,7.804,3.01,15.535,4.668,23.263c0.884,4.118,1.74,8.231,2.529,12.356c1.103-11.171,0.44-24.312-3.474-38.229
	c10.2,20.385,10.815,51.981,4.054,73.835c-1.099,3.549-2.148,7.071-2.413,10.855c-0.126,0-0.027,3.47-0.003,3.798
	c0.751,10.241,8.006,17.175,16.275,20.773c13.316,5.795,27.822,2.427,40.802-2.179c5.596-1.986,14.266-3.203,20.276,2.194
	c-7.347-2.133-14.455,0.632-19.601,3.803c6.938,0.253,12.939,1.749,15.836,9.588c-5.698-7.636-17.332-5.816-24.876-2.474
	c3.863,4.928,4.604,11.926,3.061,19.836c1.528-1.023,3.258-0.989,4.529-0.049c0.782-0.336,1.651-0.395,2.494-0.09
	c0.454,0.164,0.835,0.403,1.155,0.699c0.901-0.582,1.952-0.865,3.077-0.581c1.479,0.373,2.342,1.494,2.86,2.794
	c0.883-0.909,2.006-1.498,3.426-1.297c2.447,0.345,3.62,2.865,4.273,5.227c1.001-2.18,2.567-4.469,5.198-4.229
	c2.613,0.238,3.91,2.881,4.766,5.021c0.113,0.281,0.221,0.565,0.326,0.852c0.103-0.295,0.211-0.584,0.326-0.869
	c1.042-2.585,2.876-5.789,6.103-5.666c2.271,0.086,3.828,1.83,4.843,3.686c0.838,1.534,1.643,3.865,2.277,6.414
	c0.748-2.492,1.667-4.807,2.637-6.518c2.756-4.861,7.166-4.98,10.018-0.062c0.954,1.646,1.696,3.509,2.256,5.479
	c0.561-1.971,1.304-3.834,2.257-5.479c2.853-4.919,7.262-4.8,10.018,0.062c0.971,1.711,1.889,4.025,2.637,6.518
	c0.635-2.549,1.439-4.88,2.277-6.414c1.016-1.855,2.572-3.6,4.844-3.686c3.227-0.123,5.061,3.081,6.102,5.666
	c0.115,0.285,0.223,0.574,0.326,0.869c0.105-0.286,0.213-0.57,0.326-0.852c0.855-2.141,2.152-4.783,4.766-5.021
	c2.631-0.24,4.195,2.049,5.197,4.229c0.652-2.361,1.826-4.882,4.273-5.227c1.42-0.201,2.543,0.388,3.426,1.297
	c0.518-1.3,1.381-2.421,2.861-2.794c1.125-0.284,2.176-0.001,3.078,0.582c0.322-0.298,0.703-0.538,1.152-0.7
	c0.844-0.305,1.713-0.246,2.494,0.09c1.281-0.947,3.027-0.975,4.564,0.073c-1.549-7.92-0.811-14.928,3.057-19.86
	c-7.545-3.343-19.18-5.162-24.877,2.474c2.896-7.839,8.898-9.335,15.836-9.588c-5.146-3.171-12.254-5.936-19.6-3.803
	c6.01-5.397,14.68-4.181,20.275-2.194c12.98,4.605,27.486,7.974,40.803,2.179c8.268-3.599,15.523-10.532,16.273-20.773
	c0.025-0.328,0.123-3.798-0.002-3.798c-0.266-3.784-1.314-7.307-2.414-10.855c-6.76-21.854-6.145-53.45,4.055-73.835
	c-3.914,13.917-4.576,27.058-3.475,38.229c0.791-4.125,1.646-8.238,2.529-12.356c1.658-7.728,3.404-15.459,4.668-23.263
	c0.951-5.855,1.496-11.779,1.625-17.712c-2.359-2.095-3.852-4.543-4.727-7.199c-0.871,1.526-1.965,2.919-3.332,4.103
	c-0.094,0.081-0.188,0.159-0.281,0.237c0.395,0.426,0.75,0.869,1.062,1.327c0.916,1.349,1.547,2.886,1.785,4.433
	c0.23,1.503,0.1,3.026-0.486,4.418c-0.209,0.498-0.479,0.974-0.793,1.42c-0.848,1.192-2.027,2.113-3.34,2.594
	c-3.02,1.107-6.502-0.413-7.57-3.471c-0.365-1.047-0.385-2.204,0.082-3.336c0.896-2.176,3.471-3.548,5.684-2.634
	c3.945,1.625,1.732,5.995-0.844,4.524c-0.875-0.499-1.16-1.379-0.938-2.227c-0.703,0.083-1.354,0.62-1.627,1.28
	c-0.215,0.522-0.201,1.071-0.023,1.578c0.615,1.765,2.662,2.603,4.391,1.969c0.846-0.311,1.613-0.915,2.174-1.703
	c0.203-0.288,0.385-0.609,0.529-0.958c0.895-2.127,0.188-4.668-1.061-6.502c-0.311-0.459-0.676-0.898-1.086-1.316
	c-3.451,1.897-7.533,2.133-11.203,0.617c-4.592-1.897-7.582-6.138-7.713-11.168c-0.021-0.84,0.035-1.669,0.156-2.486
	c-1.619,2.06-2.877,4.537-3.539,7.118c-0.848,3.308-0.711,6.769,0.916,9.687c1.719,3.083,5.033,5.129,8.895,7.513
	c0.658,0.406,1.328,0.82,1.807,1.12c1.846,1.161,3.598,2.503,5.023,4.099c2.271,2.542,3.543,5.595,3.369,9.017
	c-0.191,3.749-2.088,6.955-5.674,8.314c-3.004,1.14-6.629,0.759-9.012-1.373c-2.795-2.502-3.047-6.946-0.705-9.83
	c1.879-2.317,5.668-3.257,8.191-1.592c1.127,0.745,1.869,2.038,1.869,3.357c0,1.731-1.402,3.134-3.133,3.134
	c-1.732,0-3.135-1.403-3.135-3.134c0-0.369,0.064-0.722,0.182-1.051c-0.057,0.018-0.111,0.038-0.166,0.06
	c-2.426,0.944-3.145,4.214-1.664,6.301c1.314,1.852,4.258,2.191,6.568,1.292c2.445-0.952,3.559-3.085,3.689-5.631
	c0.133-2.635-0.859-4.917-2.607-6.872c-1.211-1.355-2.75-2.528-4.391-3.56c-0.738-0.464-1.268-0.79-1.783-1.108
	c-4.219-2.605-7.838-4.841-9.938-8.604c-2.029-3.642-2.223-7.876-1.195-11.878c0.719-2.808,2.047-5.51,3.762-7.808
	c-1.904,0.474-3.945,0.633-6.139,0.394l-2.988-0.327l1.143-2.822c1.342-3.315,3.383-5.79,5.857-7.661
	c-1.699-0.31-3.334-0.878-4.844-1.774c-4.234-2.514-6.451-7.152-5.934-12.103c0.297-2.836,1.457-5.438,3.273-7.493
	c-0.266-0.02-0.529-0.051-0.787-0.092c-1.502-0.238-2.914-0.828-4.061-1.81c-0.41-0.352-0.781-0.752-1.111-1.189
	c-0.877-1.169-1.393-2.575-1.451-3.97c-0.135-3.215,2.375-6.068,5.613-6.153c1.109-0.028,2.217,0.305,3.152,1.096
	c1.799,1.518,2.322,4.387,0.775,6.216c-2.75,3.262-6.236-0.177-4.051-2.183c0.742-0.681,1.668-0.684,2.406-0.213
	c0.137-0.695-0.178-1.48-0.723-1.94c-0.432-0.364-0.959-0.519-1.494-0.504c-1.869,0.049-3.291,1.742-3.215,3.582
	c0.037,0.9,0.379,1.816,0.959,2.589c0.213,0.283,0.463,0.552,0.75,0.798c1.754,1.5,4.389,1.601,6.516,0.973
	c0.182-0.054,0.361-0.113,0.541-0.179c0.43-0.223,0.873-0.424,1.332-0.603c0.088-0.046,0.174-0.094,0.26-0.144l0.023,0.037
	c1.586-0.579,3.215-0.859,4.852-0.904c-2.037-2.215-3.518-4.958-4.133-8.424l-0.525-2.948l3.01,0.13
	c3.537,0.153,6.465,1.254,8.941,2.97c-0.18-1.718-0.094-3.463,0.338-5.201c0.445-1.79,1.24-3.418,2.309-4.82l0.006-0.018
	c-16.381-22.548-40.881-36.883-67.588-43.01l-0.008,0.005c-0.207,0.103-0.416,0.201-0.627,0.294c2.789,1.25,5.279,3.193,7.266,6.126
	l1.691,2.495l-2.834,1.024c-3.076,1.112-6.006,1.289-8.793,0.815c1.953,2.276,4.209,4.011,6.668,5.362
	c2.549-2.577,5.139-4.923,9.164-4.958c4.93-0.042,8.602,2.679,15.189,1.053c-2.396,3.12-5.176,6.692-8.74,8.536
	c2.008,0.318,4.023,0.596,6.014,0.884c7.836,1.136,17.768,1.604,23.637,7.42c2.719,2.694,4.385,6.16,3.904,10.489
	c-0.416,3.629-3.201,7.169-6.895,7.841c-1.562,0.285-3.123-0.005-4.543-0.688c-0.963-0.463-1.826-1.124-2.51-1.947
	c-0.738-0.89-1.26-1.961-1.459-3.103c-0.203-1.155-0.061-2.34,0.451-3.4c0.363-0.755,0.887-1.406,1.529-1.94
	c2.16-1.793,5.646-1.354,7.361,0.842c1.102,1.411,1.109,3.257-0.201,4.545c-0.838,0.825-2.104,1.052-3.178,0.566
	c-1.438-0.65-2.076-2.342-1.426-3.779c0.123-0.274,0.287-0.524,0.488-0.744c-0.518,0.021-1.002,0.209-1.406,0.544
	c-0.355,0.296-0.66,0.655-0.861,1.075c-0.277,0.576-0.344,1.222-0.234,1.848c0.123,0.702,0.457,1.361,0.91,1.908
	c0.447,0.54,1.012,0.975,1.645,1.278c0.928,0.447,1.951,0.663,2.977,0.476c2.438-0.444,4.303-3.066,4.539-5.558
	c0.26-2.753-0.939-5.402-2.742-7.546c-4.299-5.11-11.643-5.181-17.912-6.227c-4.17-0.695-8.822-1.083-13.416-1.77
	c0.865,1.074,1.473,2.318,1.705,3.674c0.092,0.532,0.121,1.078,0.096,1.624c-0.072,1.46-0.572,2.872-1.418,3.983
	c-1.949,2.559-5.703,3.152-8.25,1.149c-0.871-0.687-1.51-1.65-1.725-2.856c-0.416-2.317,1.014-4.858,3.371-5.279
	c4.201-0.753,4.688,4.119,1.725,4.267c-1.006,0.05-1.719-0.539-1.988-1.373c-0.549,0.448-0.809,1.252-0.684,1.954
	c0.1,0.556,0.408,1.012,0.83,1.343c1.469,1.155,3.645,0.76,4.76-0.704c0.545-0.716,0.869-1.639,0.916-2.604
	c0.018-0.353-0.004-0.721-0.068-1.093c-0.391-2.274-2.355-4.035-4.393-4.91c-0.24-0.103-0.486-0.195-0.74-0.279
	c-0.467-0.111-0.93-0.228-1.389-0.352l-0.104-0.019v-0.009c-3.807-1.037-7.35-2.549-10.273-4.937
	c0.145,4.248-1.834,8.244-5.342,10.806c-4.055,2.961-9.305,3.39-13.74,0.991c-1.541-0.834-2.869-1.927-4.012-3.199
	c-0.327,3.039-1.406,6.008-3.58,8.805l-1.851,2.379L127.036,49.167L127.036,49.167z M181.008,283.98
	c0.219-0.54,0.58-0.915,1.174-0.463c1.299,0.991,2.662,3.529,3.281,7.306c0.398,2.432,0.059,6.182-2.652,6.156
	c0.357-1.105,0.49-2.324,0.49-3.477C183.301,291.144,182.42,286.574,181.008,283.98L181.008,283.98z M190.617,299.745
	c-0.432-1.843-4.334-2.215-5.965,0.033c0.615,0.412,1.131,0.961,1.473,1.659c0.238,0.483,0.172,0.296,0.299,0.833
	c0.424,1.81,0.377,3.715,0.031,5.533c-0.199,1.035-0.506,2.092-0.908,3.117C187.98,311.205,191.777,304.71,190.617,299.745
	L190.617,299.745z M184.826,282.99c0.312-0.182,0.736-0.161,1.301,0.269c1.004,0.766,2.559,3.166,3.176,6.941
	c0.33,2.006-0.053,4.254-1.748,4.98c0.408-1.553,0.381-3.285,0.145-4.725C187.314,288.106,186.443,285.058,184.826,282.99
	L184.826,282.99z M63.426,299.745c0.432-1.843,4.334-2.215,5.964,0.033c-0.614,0.412-1.131,0.961-1.474,1.659
	c-0.237,0.483-0.172,0.296-0.298,0.833c-0.423,1.81-0.378,3.715-0.03,5.533c0.198,1.035,0.504,2.092,0.907,3.117
	C66.063,311.205,62.265,304.71,63.426,299.745L63.426,299.745z M184.215,302.787c-0.471-2.011-4.582-2.479-6.543-0.247
	c0.699,0.432,1.285,1.027,1.666,1.805c0.244,0.498,0.172,0.293,0.303,0.85c0.441,1.888,0.395,3.876,0.031,5.772
	c-0.285,1.494-0.787,3.028-1.467,4.456C180.945,316.264,185.576,308.601,184.215,302.787L184.215,302.787z M177.434,305.712
	c-0.551-2.349-5.818-2.697-7.475,0.62c0.482,0.388,0.891,0.871,1.176,1.456c0.246,0.498,0.174,0.291,0.305,0.85
	c0.441,1.887,0.393,3.875,0.031,5.771c-0.252,1.317-0.672,2.667-1.234,3.947C172.832,321.7,179.021,312.505,177.434,305.712
	L177.434,305.712z M169.23,309.154c-0.469-2.005-4.375-2.552-6.539-0.608c0.061,0.102,0.119,0.205,0.174,0.312
	c0.156,0.311,0.275,0.637,0.354,0.975c0.475,2.07,0.43,4.248,0.051,6.329c-0.307,1.683-0.852,3.415-1.602,5.032
	C163.982,326.083,170.9,316.292,169.23,309.154L169.23,309.154z M161.008,310.341c-0.58-2.529-5.873-3.023-8.021,0.115
	c0.125,0.238,0.227,0.487,0.305,0.744c0.617,2.031,0.723,4.208,0.49,6.311c-0.215,1.934-0.736,3.954-1.523,5.812
	C154.504,330.538,162.953,318.805,161.008,310.341L161.008,310.341z M151.121,311.86c-0.711-2.343-5.482-2.588-7.637,0.146
	c0.043,0.066,0.086,0.134,0.127,0.202c0.178,0.298,0.32,0.616,0.42,0.948c0.619,2.031,0.725,4.209,0.49,6.312
	c-0.203,1.824-0.678,3.725-1.393,5.494C145.715,332.972,153.699,320.34,151.121,311.86L151.121,311.86z M141.861,313.816
	c-0.816-2.69-6.99-2.614-8.402,1.565c0.227,0.854,0.348,1.809,0.332,2.869c-0.021,1.583-0.203,3.357-0.568,5.113
	C134.508,337.848,144.732,323.257,141.861,313.816L141.861,313.816z M122.519,318.219c0.048,3.462,0.933,7.784,2.754,10.371
	c0.747,1.062,1.309,1.474,1.747,1.458c0.438,0.016,1-0.396,1.747-1.458c1.821-2.587,2.701-6.909,2.754-10.371
	C131.643,310.424,122.41,310.394,122.519,318.219L122.519,318.219z M112.18,313.816c0.818-2.69,6.99-2.614,8.403,1.565
	c-0.227,0.854-0.347,1.809-0.332,2.869c0.022,1.583,0.203,3.357,0.569,5.113C119.534,337.848,109.31,323.257,112.18,313.816
	L112.18,313.816z M102.921,311.86c0.712-2.343,5.483-2.588,7.638,0.146c-0.044,0.066-0.087,0.134-0.128,0.202
	c-0.178,0.298-0.319,0.616-0.42,0.948c-0.618,2.031-0.724,4.209-0.49,6.312c0.203,1.824,0.678,3.725,1.392,5.494
	C108.328,332.972,100.343,320.34,102.921,311.86L102.921,311.86z M93.034,310.341c0.581-2.529,5.874-3.023,8.022,0.115
	c-0.125,0.238-0.227,0.487-0.305,0.744c-0.618,2.031-0.724,4.208-0.49,6.311c0.215,1.934,0.735,3.954,1.523,5.812
	C99.54,330.538,91.09,318.805,93.034,310.341L93.034,310.341z M84.812,309.154c0.469-2.005,4.375-2.552,6.54-0.608
	c-0.062,0.102-0.12,0.205-0.174,0.312c-0.157,0.311-0.276,0.637-0.354,0.975c-0.475,2.07-0.429,4.248-0.051,6.329
	c0.306,1.683,0.853,3.415,1.602,5.032C90.059,326.083,83.142,316.292,84.812,309.154L84.812,309.154z M76.609,305.712
	c0.55-2.349,5.818-2.697,7.475,0.62c-0.484,0.388-0.891,0.871-1.177,1.456c-0.244,0.498-0.173,0.291-0.303,0.85
	c-0.441,1.887-0.394,3.875-0.031,5.771c0.252,1.317,0.671,2.667,1.234,3.947C81.209,321.7,75.021,312.505,76.609,305.712
	L76.609,305.712z M69.827,302.787c0.471-2.011,4.582-2.479,6.544-0.247c-0.699,0.432-1.285,1.027-1.667,1.805
	c-0.245,0.498-0.173,0.293-0.304,0.85c-0.442,1.888-0.394,3.876-0.031,5.772c0.285,1.494,0.787,3.028,1.467,4.456
	C73.097,316.264,68.467,308.601,69.827,302.787L69.827,302.787z M69.216,282.99c-0.312-0.182-0.737-0.161-1.3,0.269
	c-1.004,0.766-2.559,3.166-3.177,6.941c-0.329,2.006,0.054,4.254,1.748,4.98c-0.407-1.553-0.381-3.285-0.145-4.725
	C66.728,288.106,67.6,285.058,69.216,282.99L69.216,282.99z M73.034,283.98c-0.217-0.54-0.579-0.915-1.173-0.463
	c-1.3,0.991-2.662,3.529-3.281,7.306c-0.399,2.432-0.06,6.182,2.651,6.156c-0.356-1.105-0.489-2.324-0.489-3.477
	C70.743,291.144,71.624,286.574,73.034,283.98L73.034,283.98z M73.01,293.503c0,3.744,1.417,4.693,2.387,4.943
	c0.514,0.132,0.999-0.004,1.434-0.367c-0.263-3.094,0.72-7.068,1.822-9.947c-0.085-0.732-0.205-1.488-0.362-2.259
	c-0.457-2.253-1.325-3.124-2.765-1.556C74.069,285.906,73.01,291.46,73.01,293.503L73.01,293.503z M81.444,287.368
	c-0.897,1.88-1.875,4.847-2.292,8.046c-0.703,5.384,1.965,7.901,4.809,7.548c1.015-0.127,1.659-0.67,2.064-1.48
	c-0.169-2.242,0.072-4.623,0.563-6.93C86.29,290.907,84.701,280.54,81.444,287.368L81.444,287.368z M97.467,301.792
	c0.438-4.337-0.399-8.76-1.864-12.426c-1.401-3.506-2.98-5.278-5.226,0.453c-1.582,4.039-2.594,8.906-1.933,12.812
	C89.212,307.164,96.834,308.06,97.467,301.792L97.467,301.792z M110.482,303.976c0.66-4.16-1.401-13.124-3.138-16.301
	c-1.737-3.176-3.86-3.203-5.829,1.681c-1.968,4.884-2.346,13.679-1.216,16.29C101.99,309.551,109.875,307.811,110.482,303.976
	L110.482,303.976z M125.514,305.317c0.381-5.676-0.401-12.914-3.202-17.745c-1.875-3.234-3.575-2.651-5.1,0.037
	c-2.078,3.666-4.339,11.739-4.058,16.625C113.545,311.015,125.042,312.34,125.514,305.317L125.514,305.317z M128.529,305.317
	c-0.381-5.676,0.4-12.914,3.201-17.745c1.875-3.234,3.576-2.651,5.1,0.037c2.078,3.666,4.34,11.739,4.057,16.625
	C140.498,311.015,129.001,312.34,128.529,305.317L128.529,305.317z M143.561,303.976c-0.66-4.16,1.4-13.124,3.137-16.301
	c1.738-3.176,3.861-3.203,5.83,1.681c1.967,4.884,2.346,13.679,1.215,16.29C152.053,309.551,144.168,307.811,143.561,303.976
	L143.561,303.976z M156.574,301.792c-0.438-4.337,0.4-8.76,1.865-12.426c1.4-3.506,2.98-5.278,5.225,0.453
	c1.582,4.039,2.596,8.906,1.934,12.812C164.83,307.164,157.209,308.06,156.574,301.792L156.574,301.792z M172.6,287.368
	c0.896,1.88,1.873,4.847,2.291,8.046c0.703,5.384-1.965,7.901-4.809,7.548c-1.016-0.127-1.66-0.67-2.064-1.48
	c0.17-2.242-0.072-4.623-0.562-6.93C167.752,290.907,169.342,280.54,172.6,287.368L172.6,287.368z M181.031,293.503
	c0,3.744-1.416,4.693-2.387,4.943c-0.514,0.132-0.998-0.004-1.434-0.367c0.271-3.152-0.742-7.124-1.822-9.947
	c0.086-0.732,0.205-1.488,0.361-2.259c0.457-2.253,1.326-3.124,2.766-1.556C179.973,285.906,181.031,291.46,181.031,293.503
	L181.031,293.503z M43.156,111.985c4.973,6.815,3.969,17.309-1.83,22.524C51.155,130.999,54.475,115.951,43.156,111.985
	L43.156,111.985z M210.918,111.985c-4.975,6.815-3.971,17.309,1.83,22.524C202.918,130.999,199.598,115.951,210.918,111.985
	L210.918,111.985z M161.424,124.047c2.365,0.689,4.631,1.026,6.77,1.065c3.027,0.055,5.801-0.487,8.25-1.476
	c0.57,1.115,1.367,2.229,2.162,3.166c1.912,2.253,4.357,4.009,7.26,4.702c3.424,0.817,6.812,0.173,10.254,0.494
	c3.598,0.336,5.881,1.241,8.945,3.045c-2.715-7.159-7.492-15.432-15.965-16.28c-1.799-0.18-3.83-0.095-5.838,0.173
	c1.154-1.261,2.107-2.66,2.834-4.147c1.047-2.139,1.627-4.461,1.67-6.812c0.006-0.283,0.006-0.564,0.002-0.843l0.494-0.235
	c1.221-0.583,2.459-1.471,3.484-2.353c2.24-1.928,3.979-4.386,4.65-7.293c0.793-3.428,0.125-6.812,0.422-10.257
	c0.309-3.6,1.197-5.889,2.98-8.967c-7.139,2.768-15.379,7.603-16.166,16.082l-0.02,0.236c-1.4-2.022-3.189-4.069-5.422-6.229
	l0.002-0.003c-1.238-1.199-2.521-2.348-3.766-3.464c-3.227-2.891-6.193-5.55-8.207-9.08c-2.002-3.513-2.861-7.632-2.344-11.452
	c0.469-3.447,2.07-6.647,4.98-8.906c0.279-0.216,0.559-0.418,0.84-0.605c3.045-2.036,6.635-2.766,10.023-2.266
	c3.373,0.499,6.545,2.22,8.77,5.088c0.201,0.259,0.393,0.524,0.574,0.794c0.514,0.769,0.914,1.586,1.203,2.427
	c0.74,2.141,0.781,4.455,0.191,6.535c-0.574,2.029-1.756,3.82-3.48,4.974c-0.551,0.368-1.156,0.673-1.812,0.899
	c-2.281,0.787-4.432,0.642-6.186-0.109c-1.238-0.531-2.279-1.369-3.023-2.393c-0.734-1.009-1.178-2.195-1.232-3.437
	c-0.02-0.397,0.004-0.803,0.068-1.213c0.58,0.393,1.279,0.623,2.033,0.623c2.006,0,3.633-1.627,3.633-3.633
	c0-1.92-1.271-3.093-2.77-3.432c-2.068-0.468-3.73,0.539-4.703,2.083c-1.051,1.666-1.33,3.959-1.25,5.701
	c0.082,1.854,0.729,3.6,1.795,5.066c1.057,1.452,2.529,2.638,4.277,3.388c2.387,1.023,5.287,1.229,8.33,0.179
	c0.914-0.315,1.748-0.734,2.504-1.239c2.342-1.566,3.938-3.959,4.699-6.649c0.75-2.64,0.693-5.585-0.25-8.316
	c-0.375-1.087-0.889-2.138-1.543-3.119c-0.225-0.333-0.455-0.653-0.691-0.958c-2.725-3.513-6.594-5.618-10.703-6.225
	c-4.094-0.605-8.434,0.281-12.121,2.746c-0.344,0.23-0.68,0.471-1.004,0.723c-3.582,2.779-5.549,6.684-6.117,10.874
	c-0.119,0.878-0.176,1.77-0.174,2.666c-0.936-1.086-2.041-2.022-3.322-2.74c-3.068-1.721-6.504-2.028-9.729-3.277
	c-3.369-1.306-5.316-2.8-7.773-5.372c0.658,7.628,2.992,16.892,10.91,20.022c3.332,1.317,7.834,1.884,11.408,1.77l1.221-0.039
	c0.055,0.1,0.109,0.199,0.166,0.298c2.25,3.946,5.396,6.765,8.816,9.83c0.703,0.63,1.418,1.271,2.148,1.946
	c-7.156-3.855-15.639-0.209-21.932,3.766c3.535,0.4,5.902,1.049,8.98,2.943c2.943,1.812,5.266,4.363,8.492,5.768
	c2.736,1.191,5.746,1.256,8.627,0.605c1.32-0.299,2.771-0.766,3.967-1.4l0.686-0.364c1.008,2.461,1.424,4.991,1.373,7.791
	c-0.035,1.906-0.51,3.797-1.365,5.547c-1.211,2.474-3.18,4.663-5.744,6.219c-2.586,1.568-5.783,2.496-9.428,2.429
	c-2.836-0.051-5.945-0.706-9.254-2.124c0.801-0.509,1.557-1.096,2.258-1.771c3.594-3.46,4.791-8.528,3.268-13.256
	c-1.541-4.778-5.535-8.211-10.533-8.877c-1.736-0.231-3.455-0.128-5.127,0.229c1.521-2.65,2.395-5.687,2.279-9.228l-0.098-3.012
	l-2.896,0.837c-3.402,0.984-6.02,2.752-8.07,5.018c-0.18-1.725-0.621-3.415-1.398-5.016c-2.182-4.487-6.631-7.191-11.599-7.203
	c-5.02-0.012-9.519,2.727-11.697,7.273c-0.757,1.582-1.189,3.246-1.366,4.947c-2.05-2.266-4.668-4.034-8.072-5.019l-2.896-0.837
	l-0.099,3.012c-0.115,3.54,0.757,6.577,2.278,9.227c-1.696-0.362-3.439-0.464-5.203-0.219c-4.941,0.687-8.889,4.083-10.435,8.804
	c-1.563,4.771-0.349,9.896,3.303,13.373c0.685,0.652,1.423,1.222,2.203,1.718c-3.309,1.418-6.419,2.073-9.256,2.124
	c-3.644,0.066-6.841-0.861-9.427-2.429c-2.564-1.556-4.534-3.745-5.745-6.219c-0.855-1.75-1.331-3.641-1.365-5.547
	c-0.051-2.8,0.365-5.329,1.372-7.791l0.687,0.364c1.195,0.635,2.646,1.102,3.966,1.4c2.881,0.651,5.892,0.586,8.628-0.605
	c3.226-1.404,5.547-3.955,8.493-5.768c3.077-1.894,5.445-2.542,8.979-2.943c-6.293-3.975-14.774-7.622-21.932-3.766
	c0.731-0.674,1.447-1.315,2.149-1.946c3.42-3.064,6.565-5.883,8.815-9.83c0.056-0.099,0.111-0.198,0.166-0.298l1.221,0.039
	c3.575,0.114,8.076-0.452,11.408-1.77c7.919-3.131,10.252-12.395,10.91-20.022c-2.456,2.572-4.404,4.066-7.773,5.372
	c-3.225,1.25-6.66,1.556-9.729,3.277c-1.281,0.718-2.386,1.654-3.323,2.74c0.002-0.896-0.055-1.787-0.174-2.666
	c-0.568-4.19-2.535-8.095-6.117-10.874c-0.325-0.252-0.66-0.493-1.003-0.723c-3.687-2.465-8.028-3.351-12.122-2.746
	c-4.109,0.607-7.979,2.712-10.703,6.225c-0.237,0.305-0.467,0.625-0.69,0.958c-0.656,0.981-1.169,2.032-1.544,3.119
	c-0.943,2.731-0.999,5.676-0.25,8.316c0.763,2.69,2.357,5.083,4.7,6.649c0.755,0.505,1.59,0.924,2.503,1.239
	c3.044,1.05,5.944,0.844,8.33-0.179c1.749-0.75,3.222-1.936,4.278-3.388c1.067-1.467,1.713-3.213,1.796-5.066
	c0.078-1.742-0.2-4.035-1.25-5.701c-0.974-1.544-2.635-2.551-4.704-2.083c-1.498,0.339-2.769,1.512-2.769,3.432
	c0,2.006,1.626,3.633,3.633,3.633c0.753,0,1.454-0.229,2.034-0.623c0.064,0.41,0.086,0.815,0.068,1.213
	c-0.056,1.242-0.5,2.428-1.234,3.437c-0.745,1.024-1.786,1.861-3.024,2.393c-1.752,0.751-3.903,0.896-6.185,0.109
	c-0.656-0.226-1.261-0.531-1.812-0.899c-1.724-1.153-2.906-2.944-3.481-4.974c-0.589-2.08-0.547-4.395,0.191-6.535
	c0.29-0.841,0.69-1.658,1.205-2.427c0.181-0.27,0.372-0.535,0.573-0.794c2.225-2.869,5.396-4.59,8.77-5.088
	c3.389-0.5,6.979,0.23,10.024,2.266c0.281,0.188,0.561,0.39,0.839,0.605c2.912,2.259,4.513,5.459,4.98,8.906
	c0.519,3.82-0.341,7.939-2.343,11.452c-2.013,3.53-4.98,6.189-8.206,9.08c-1.245,1.116-2.528,2.265-3.767,3.464l0.002,0.003
	c-2.232,2.16-4.021,4.206-5.421,6.229l-0.02-0.236c-0.788-8.479-9.027-13.314-16.166-16.082c1.782,3.079,2.671,5.368,2.981,8.967
	c0.296,3.445-0.371,6.829,0.421,10.257c0.671,2.908,2.411,5.366,4.65,7.293c1.025,0.882,2.265,1.771,3.486,2.353l0.493,0.235
	c-0.003,0.279-0.002,0.56,0.003,0.843c0.042,2.351,0.624,4.673,1.67,6.812c0.727,1.487,1.68,2.886,2.835,4.147
	c-2.01-0.268-4.041-0.353-5.839-0.173c-8.473,0.848-13.249,9.122-15.965,16.28c3.065-1.804,5.348-2.709,8.945-3.045
	c3.443-0.321,6.832,0.323,10.254-0.494c2.903-0.692,5.349-2.449,7.26-4.702c0.795-0.937,1.593-2.051,2.163-3.166
	c2.449,0.989,5.223,1.531,8.25,1.476c2.14-0.039,4.405-0.376,6.771-1.065c-0.995,0.903-1.917,1.959-2.75,3.188l-1.691,2.495
	l2.834,1.024c3.331,1.204,6.489,1.312,9.479,0.685c-0.87,1.502-1.505,3.128-1.816,4.88c-0.874,4.912,1.137,9.716,5.148,12.645
	c4.054,2.96,9.304,3.389,13.739,0.991c1.542-0.834,2.87-1.927,4.013-3.198c0.327,3.038,1.406,6.008,3.581,8.804l1.85,2.379
	l1.851-2.379c2.174-2.796,3.254-5.766,3.58-8.804c1.16,1.291,2.51,2.397,4.08,3.235c4.402,2.349,9.592,1.921,13.617-0.989
	c4.068-2.941,6.098-7.801,5.188-12.76c-0.316-1.725-0.945-3.325-1.803-4.805c2.99,0.628,6.148,0.519,9.48-0.685l2.834-1.024
	l-1.689-2.495C163.34,126.006,162.418,124.95,161.424,124.047L161.424,124.047z M162.041,119.184
	c12.373,3.308,22.49-3.752,19.816-16.558C180.859,112.976,171.457,119.336,162.041,119.184L162.041,119.184z M141.363,86.24
	C153.348,74.277,141.592,69.308,141.363,86.24L141.363,86.24z M112.8,86.24C100.815,74.276,112.571,69.308,112.8,86.24L112.8,86.24z
	 M92.031,119.184c-12.374,3.308-22.489-3.752-19.815-16.558C73.213,112.976,82.615,119.336,92.031,119.184L92.031,119.184z
	 M74.381,54.454c-6.135,0.327-10.807,6.761-8.928,12.572c1.282,3.966,5.529,6.294,9.445,3.804c-4.036,0.412-6.77-1.938-7.513-4.952
	C66.391,61.845,68.757,56.555,74.381,54.454L74.381,54.454z M179.691,54.454c6.135,0.327,10.807,6.761,8.928,12.572
	c-1.281,3.966-5.527,6.294-9.445,3.804c4.037,0.412,6.771-1.938,7.514-4.952C187.682,61.845,185.316,56.555,179.691,54.454
	L179.691,54.454z M198.795,236.802c6.037-0.252,11.281-1.99,14.207-9.655c1.5,4.144,2.77,9.527-0.773,13.618
	c-3.121,3.605-8.682,4.469-13.389,4.471c1.764,0.271,3.564,0.447,5.408,0.479c6.324,0.107,12.77-0.727,17.979-4.066
	c2.186-1.401,4.816-4.056,6.182-6.658c1.404-2.676,1.689-6.552-0.223-8.678c-2.816-3.131-8.402-1.278-7.146,2.727
	c0.43-1.3,1.656-2.237,3.102-2.237c2.764,0,3.891,2.825,2.895,5.132c-0.836,1.935-2.965,3.004-5.227,2.776
	c-7.4-0.742-7.221-12.103,0.219-14.496c3.049-0.98,6.691-0.536,9.34,1.654c0.594,0.491,1.104,1.018,1.537,1.575
	c-0.885-2.514-2.441-4.283-3.342-6.873c-1.59-4.581-1.869-10.803,0.766-16.209c-0.076,5.17,0.602,10.274,2.441,15.284
	c1.537,4.19,2.707,8.833,2.377,13.319c-0.205,2.798-1.104,5.612-2.561,8.004c-2.5,4.104-6.564,7.178-11.17,9.182
	c-9.531,4.148-19.971,2.981-29.779,0.244c-10.803-3.014-27.598-7.748-36.438,4.822c0.117-5.024,0.521-12.096,6.279-18.692
	c4.395-5.036,9.906,0.393,4.752,3.574c-5.355,3.307-7.658,5.655-9.057,10.896c3.686-6.547,10.238-9.533,17.393-10.5
	C182.543,235.413,190.734,237.14,198.795,236.802L198.795,236.802z M228.941,218.521c-1.965-2.195-2.598-5.51-2.314-8.174
	C223.316,213.593,223.453,218.556,228.941,218.521L228.941,218.521z M55.278,236.802c-6.038-0.252-11.282-1.99-14.208-9.655
	c-1.5,4.144-2.77,9.527,0.772,13.618c3.122,3.605,8.683,4.469,13.389,4.471c-1.764,0.271-3.564,0.447-5.408,0.479
	c-6.325,0.107-12.77-0.727-17.978-4.066c-2.187-1.401-4.817-4.056-6.182-6.658c-1.404-2.676-1.69-6.552,0.222-8.678
	c2.816-3.131,8.402-1.278,7.148,2.727c-0.431-1.3-1.657-2.237-3.102-2.237c-2.764,0-3.891,2.825-2.895,5.132
	c0.835,1.935,2.965,3.004,5.225,2.776c7.401-0.742,7.221-12.103-0.218-14.496c-3.048-0.98-6.691-0.536-9.34,1.654
	c-0.593,0.491-1.103,1.018-1.536,1.575c0.884-2.514,2.441-4.283,3.341-6.873c1.591-4.581,1.87-10.803-0.766-16.209
	c0.077,5.17-0.602,10.274-2.44,15.284c-1.537,4.19-2.707,8.833-2.378,13.319c0.205,2.798,1.104,5.612,2.561,8.004
	c2.5,4.104,6.564,7.178,11.169,9.182c9.532,4.148,19.971,2.981,29.78,0.244c10.802-3.014,27.596-7.748,36.438,4.822
	c-0.119-5.024-0.522-12.096-6.279-18.692c-4.395-5.036-9.906,0.393-4.752,3.574c5.356,3.307,7.659,5.655,9.056,10.896
	c-3.686-6.547-10.239-9.533-17.392-10.5C71.53,235.413,63.338,237.14,55.278,236.802L55.278,236.802z M25.13,218.521
	c1.966-2.195,2.598-5.51,2.315-8.174C30.756,213.593,30.619,218.556,25.13,218.521L25.13,218.521z M153.814,240.637
	c0.355-5.853-2.52-12.474-6.215-16.946C155.738,227.041,158.205,234.19,153.814,240.637L153.814,240.637z M100.258,240.637
	c-0.355-5.853,2.519-12.474,6.214-16.946C98.334,227.041,95.868,234.19,100.258,240.637L100.258,240.637z M186.818,264.663
	c-5.223,2.271-6.092,4.911-6.549,9.145c-0.436,4.04-5.146,3.939-4.992-0.08C175.535,266.925,181.186,263.646,186.818,264.663
	L186.818,264.663z M183.635,262.175c-8.104,0.106-11.588,5.2-13.109,11.453c-1.205,4.944-6.322,4.633-6.254-0.404
	C164.404,263.182,174.297,258.999,183.635,262.175L183.635,262.175z M171.182,253.209c-10.408,3.959-11.252,12.509-12.52,19.923
	c-1.043,6.092-7.688,5.812-7.59-0.305C151.273,260.249,159.848,252.779,171.182,253.209L171.182,253.209z M155.633,254.438
	c-8.449,4.1-9.807,11.799-11.072,19.212c-1.043,6.091-7.377,5.943-7.332-0.174C137.303,263.493,145.932,255.045,155.633,254.438
	L155.633,254.438z M127.063,257.757C114.227,284.58,139.791,284.706,127.063,257.757L127.063,257.757z M98.439,254.438
	c8.45,4.1,9.807,11.799,11.074,19.212c1.042,6.091,7.375,5.943,7.331-0.174C116.771,263.493,108.141,255.045,98.439,254.438
	L98.439,254.438z M82.892,253.209c10.408,3.959,11.25,12.509,12.519,19.923c1.042,6.092,7.688,5.812,7.59-0.305
	C102.798,260.249,94.226,252.779,82.892,253.209L82.892,253.209z M70.438,262.175c8.104,0.106,11.587,5.2,13.11,11.453
	c1.204,4.944,6.321,4.633,6.254-0.404C89.668,263.182,79.776,258.999,70.438,262.175L70.438,262.175z M67.253,264.663
	c5.223,2.271,6.093,4.911,6.549,9.145c0.436,4.04,5.146,3.939,4.993-0.08C78.537,266.925,72.887,263.646,67.253,264.663
	L67.253,264.663z M204.535,142.396c-1.562,0-2.828,1.267-2.828,2.83s1.266,2.83,2.828,2.83s2.83-1.267,2.83-2.83
	S206.098,142.396,204.535,142.396L204.535,142.396z M49.542,142.396c1.562,0,2.83,1.267,2.83,2.83s-1.267,2.83-2.83,2.83
	s-2.829-1.267-2.829-2.83S47.979,142.396,49.542,142.396L49.542,142.396z M108.189,214.104c1.562,0,2.83,1.267,2.83,2.829
	s-1.267,2.83-2.83,2.83s-2.829-1.268-2.829-2.83S106.627,214.104,108.189,214.104L108.189,214.104z M117.785,195.364
	c1.563,0,2.83,1.267,2.83,2.829s-1.267,2.829-2.83,2.829c-1.562,0-2.829-1.267-2.829-2.829S116.223,195.364,117.785,195.364
	L117.785,195.364z M117.993,173.66c1.562,0,2.829,1.267,2.829,2.83c0,1.562-1.267,2.829-2.829,2.829s-2.83-1.267-2.83-2.829
	C115.163,174.927,116.43,173.66,117.993,173.66L117.993,173.66z M107.436,153.538c1.563,0,2.83,1.267,2.83,2.83
	s-1.267,2.829-2.83,2.829c-1.562,0-2.829-1.267-2.829-2.829S105.874,153.538,107.436,153.538L107.436,153.538z M89.424,141.903
	c1.563,0,2.83,1.267,2.83,2.83s-1.267,2.83-2.83,2.83c-1.562,0-2.829-1.267-2.829-2.83S87.862,141.903,89.424,141.903
	L89.424,141.903z M69.768,138.394c1.562,0,2.83,1.267,2.83,2.83c0,1.562-1.267,2.829-2.83,2.829s-2.829-1.267-2.829-2.829
	C66.939,139.661,68.206,138.394,69.768,138.394L69.768,138.394z M145.889,214.104c-1.564,0-2.83,1.267-2.83,2.829
	s1.266,2.83,2.83,2.83c1.561,0,2.828-1.268,2.828-2.83S147.449,214.104,145.889,214.104L145.889,214.104z M136.291,195.364
	c-1.562,0-2.828,1.267-2.828,2.829s1.266,2.829,2.828,2.829s2.83-1.267,2.83-2.829S137.854,195.364,136.291,195.364L136.291,195.364
	z M136.084,173.66c-1.562,0-2.828,1.267-2.828,2.83c0,1.562,1.266,2.829,2.828,2.829s2.83-1.267,2.83-2.829
	C138.914,174.927,137.646,173.66,136.084,173.66L136.084,173.66z M146.641,153.538c-1.562,0-2.83,1.267-2.83,2.83
	s1.268,2.829,2.83,2.829s2.83-1.267,2.83-2.829S148.203,153.538,146.641,153.538L146.641,153.538z M164.652,141.903
	c-1.562,0-2.83,1.267-2.83,2.83s1.268,2.83,2.83,2.83s2.83-1.267,2.83-2.83S166.215,141.903,164.652,141.903L164.652,141.903z
	 M184.309,138.394c-1.562,0-2.828,1.267-2.828,2.83c0,1.562,1.266,2.829,2.828,2.829s2.83-1.267,2.83-2.829
	C187.139,139.661,185.871,138.394,184.309,138.394L184.309,138.394z M36.803,162.266c-0.007-0.155-0.011-0.312-0.011-0.468
	c0-6.26,5.074-11.334,11.334-11.334c1.385,0,2.711,0.249,3.938,0.704c1.905-3.58,5.673-6.018,10.011-6.018
	c2.905,0,5.555,1.094,7.561,2.892c1.994-1.749,4.607-2.809,7.468-2.809c4.26,0,7.97,2.35,9.906,5.824
	c1.324-0.542,2.773-0.842,4.292-0.842c6.14,0,11.138,4.882,11.327,10.976c5.828,0.47,10.411,5.348,10.411,11.296
	c0,2.09-0.566,4.048-1.553,5.729c2.727,2.07,4.488,5.345,4.488,9.032c0,3.885-1.956,7.313-4.935,9.355
	c0.811,1.561,1.269,3.333,1.269,5.213c0,5.71-4.223,10.434-9.716,11.219c0.002,0.092,0.003,0.185,0.003,0.277
	c0,6.26-5.074,11.334-11.333,11.334c-1.198,0-2.352-0.187-3.435-0.531c-1.768,3.959-5.738,6.719-10.354,6.719
	c-2.695,0-5.171-0.941-7.116-2.514c-2.034,1.94-4.789,3.132-7.822,3.132c-4.348,0-8.123-2.448-10.024-6.042
	c-1.252,0.477-2.61,0.738-4.03,0.738c-6.259,0-11.333-5.074-11.333-11.333c0-0.228,0.008-0.452,0.021-0.676
	c-5.343-0.914-9.41-5.567-9.41-11.171c0-2.2,0.627-4.254,1.713-5.992c-2.633-2.076-4.323-5.293-4.323-8.906
	c0-3.537,1.621-6.695,4.16-8.774c-1.052-1.72-1.659-3.743-1.659-5.906C27.65,167.876,31.587,163.283,36.803,162.266L36.803,162.266z
	 M217.275,162.266c0.006-0.155,0.01-0.312,0.01-0.468c0-6.26-5.074-11.334-11.334-11.334c-1.385,0-2.711,0.249-3.938,0.704
	c-1.906-3.58-5.674-6.018-10.012-6.018c-2.906,0-5.555,1.094-7.561,2.892c-1.994-1.749-4.607-2.809-7.469-2.809
	c-4.26,0-7.969,2.35-9.906,5.824c-1.324-0.542-2.773-0.842-4.293-0.842c-6.139,0-11.137,4.882-11.326,10.976
	c-5.828,0.47-10.41,5.348-10.41,11.296c0,2.09,0.566,4.048,1.553,5.729c-2.727,2.07-4.488,5.345-4.488,9.032
	c0,3.885,1.955,7.313,4.936,9.355c-0.811,1.561-1.268,3.333-1.268,5.213c0,5.71,4.223,10.434,9.715,11.219
	c-0.002,0.092-0.004,0.185-0.004,0.277c0,6.26,5.074,11.334,11.334,11.334c1.197,0,2.352-0.187,3.436-0.531
	c1.768,3.959,5.738,6.719,10.354,6.719c2.695,0,5.17-0.941,7.115-2.514c2.035,1.94,4.789,3.132,7.822,3.132
	c4.348,0,8.123-2.448,10.023-6.042c1.252,0.477,2.611,0.738,4.031,0.738c6.258,0,11.334-5.074,11.334-11.333
	c0-0.228-0.008-0.452-0.021-0.676c5.344-0.914,9.41-5.567,9.41-11.171c0-2.2-0.629-4.254-1.713-5.992
	c2.633-2.076,4.322-5.293,4.322-8.906c0-3.537-1.621-6.695-4.16-8.774c1.053-1.72,1.66-3.743,1.66-5.906
	C226.428,167.876,222.49,163.283,217.275,162.266L217.275,162.266z M127.036,242.57c-0.01-0.298-0.016-0.601-0.016-0.909
	c0,18.985-19.339,17.03-23.119,8.168c-3.586-8.408,1.67-19.299,6.414-26.346c9.084-13.496,12.394-17.354,16.65-31.476L125.038,187
	c-0.873-2.267-1.625-5.045-1.389-7.498c0.181-1.882,1.17-4.111,3.388-4.111s3.207,2.229,3.388,4.111
	c0.236,2.453-0.516,5.231-1.389,7.498l-1.928,5.008c4.256,14.122,7.564,17.979,16.648,31.476c4.744,7.047,10,17.938,6.414,26.346
	c-3.779,8.862-23.118,10.817-23.118-8.168C127.052,241.97,127.046,242.272,127.036,242.57L127.036,242.57z M125.038,169.808
	c-0.873-2.268-1.625-5.046-1.389-7.499c0.181-1.882,1.17-4.112,3.388-4.112s3.207,2.229,3.388,4.112
	c0.236,2.452-0.516,5.231-1.389,7.499l-1.999,5.191L125.038,169.808L125.038,169.808z M152.766,45.382
	c-3.467,0-6.275,2.81-6.275,6.276c0,3.466,2.809,6.276,6.275,6.276s6.275-2.81,6.275-6.276
	C159.041,48.192,156.232,45.382,152.766,45.382L152.766,45.382z M127.021,53.706c3.87,0,7.009,3.137,7.009,7.008
	c0,3.87-3.139,7.008-7.009,7.008s-7.007-3.138-7.007-7.008C120.013,56.843,123.15,53.706,127.021,53.706L127.021,53.706z
	 M101.307,45.382c3.466,0,6.276,2.81,6.276,6.276c0,3.466-2.81,6.276-6.276,6.276c-3.466,0-6.276-2.81-6.276-6.276
	C95.031,48.192,97.841,45.382,101.307,45.382L101.307,45.382z M82.363,160.97c1.504,0,2.723,1.219,2.723,2.723
	s-1.219,2.723-2.723,2.723s-2.723-1.219-2.723-2.723S80.859,160.97,82.363,160.97L82.363,160.97z M171.713,160.97
	c-1.504,0-2.723,1.219-2.723,2.723s1.219,2.723,2.723,2.723s2.725-1.219,2.725-2.723S173.217,160.97,171.713,160.97L171.713,160.97z
	 M165.588,163.765c-1.504,0-2.725,1.219-2.725,2.723s1.221,2.723,2.725,2.723s2.723-1.219,2.723-2.723
	S167.092,163.765,165.588,163.765L165.588,163.765z M160.42,168.066c-1.504,0-2.723,1.219-2.723,2.724
	c0,1.504,1.219,2.723,2.723,2.723s2.725-1.219,2.725-2.723C163.145,169.286,161.924,168.066,160.42,168.066L160.42,168.066z
	 M156.895,173.783c-1.504,0-2.723,1.219-2.723,2.723s1.219,2.723,2.723,2.723s2.723-1.219,2.723-2.723
	S158.398,173.783,156.895,173.783L156.895,173.783z M155.336,180.325c-1.504,0-2.723,1.219-2.723,2.723
	c0,1.504,1.219,2.723,2.723,2.723s2.725-1.219,2.725-2.723C158.061,181.544,156.84,180.325,155.336,180.325L155.336,180.325z
	 M155.447,187.061c-1.504,0-2.723,1.219-2.723,2.723s1.219,2.724,2.723,2.724s2.723-1.22,2.723-2.724
	S156.951,187.061,155.447,187.061L155.447,187.061z M156.988,193.614c-1.504,0-2.723,1.219-2.723,2.723s1.219,2.724,2.723,2.724
	s2.723-1.22,2.723-2.724S158.492,193.614,156.988,193.614L156.988,193.614z M160.074,199.595c-1.504,0-2.723,1.22-2.723,2.724
	s1.219,2.723,2.723,2.723s2.725-1.219,2.725-2.723S161.578,199.595,160.074,199.595L160.074,199.595z M164.566,204.608
	c-1.504,0-2.723,1.219-2.723,2.723s1.219,2.723,2.723,2.723s2.725-1.219,2.725-2.723S166.07,204.608,164.566,204.608
	L164.566,204.608z M170.131,208.399c-1.504,0-2.723,1.22-2.723,2.724s1.219,2.723,2.723,2.723s2.723-1.219,2.723-2.723
	S171.635,208.399,170.131,208.399L170.131,208.399z M176.414,210.825c-1.504,0-2.723,1.219-2.723,2.723s1.219,2.723,2.723,2.723
	s2.723-1.219,2.723-2.723S177.918,210.825,176.414,210.825L176.414,210.825z M183.068,211.874c-1.504,0-2.723,1.22-2.723,2.724
	s1.219,2.724,2.723,2.724s2.723-1.22,2.723-2.724S184.572,211.874,183.068,211.874L183.068,211.874z M189.809,211.726
	c-1.504,0-2.723,1.219-2.723,2.723s1.219,2.724,2.723,2.724s2.723-1.22,2.723-2.724S191.312,211.726,189.809,211.726
	L189.809,211.726z M196.406,210.368c-1.504,0-2.723,1.219-2.723,2.723s1.219,2.723,2.723,2.723s2.723-1.219,2.723-2.723
	S197.91,210.368,196.406,210.368L196.406,210.368z M202.443,207.407c-1.504,0-2.723,1.219-2.723,2.723s1.219,2.723,2.723,2.723
	s2.723-1.219,2.723-2.723S203.947,207.407,202.443,207.407L202.443,207.407z M207.088,202.565c-1.504,0-2.723,1.219-2.723,2.723
	s1.219,2.724,2.723,2.724s2.723-1.22,2.723-2.724S208.592,202.565,207.088,202.565L207.088,202.565z M210.012,196.505
	c-1.504,0-2.723,1.22-2.723,2.724s1.219,2.724,2.723,2.724s2.723-1.22,2.723-2.724S211.516,196.505,210.012,196.505L210.012,196.505
	z M211.488,189.931c-1.504,0-2.725,1.22-2.725,2.724s1.221,2.724,2.725,2.724s2.723-1.22,2.723-2.724
	S212.992,189.931,211.488,189.931L211.488,189.931z M211.715,183.195c-1.504,0-2.723,1.219-2.723,2.723
	c0,1.504,1.219,2.723,2.723,2.723s2.723-1.219,2.723-2.723C214.438,184.415,213.219,183.195,211.715,183.195L211.715,183.195z
	 M210.697,176.535c-1.504,0-2.723,1.219-2.723,2.723c0,1.503,1.219,2.723,2.723,2.723s2.723-1.219,2.723-2.723
	C213.42,177.754,212.201,176.535,210.697,176.535L210.697,176.535z M208.193,170.291c-1.504,0-2.723,1.219-2.723,2.723
	s1.219,2.723,2.723,2.723s2.723-1.219,2.723-2.723S209.697,170.291,208.193,170.291L208.193,170.291z M203.885,165.136
	c-1.504,0-2.723,1.219-2.723,2.723s1.219,2.723,2.723,2.723s2.725-1.219,2.725-2.723S205.389,165.136,203.885,165.136
	L203.885,165.136z M198.162,161.608c-1.504,0-2.723,1.219-2.723,2.723s1.219,2.723,2.723,2.723s2.725-1.219,2.725-2.723
	S199.666,161.608,198.162,161.608L198.162,161.608z M191.707,159.692c-1.504,0-2.725,1.219-2.725,2.724
	c0,1.503,1.221,2.723,2.725,2.723s2.723-1.219,2.723-2.723C194.43,160.912,193.211,159.692,191.707,159.692L191.707,159.692z
	 M184.994,159.064c-1.504,0-2.723,1.219-2.723,2.723s1.219,2.723,2.723,2.723s2.723-1.219,2.723-2.723
	S186.498,159.064,184.994,159.064L184.994,159.064z M178.285,159.472c-1.504,0-2.723,1.219-2.723,2.723s1.219,2.723,2.723,2.723
	s2.723-1.219,2.723-2.723S179.789,159.472,178.285,159.472L178.285,159.472z M88.49,163.765c1.504,0,2.723,1.219,2.723,2.723
	s-1.219,2.723-2.723,2.723s-2.723-1.219-2.723-2.723S86.986,163.765,88.49,163.765L88.49,163.765z M93.656,168.066
	c1.504,0,2.724,1.219,2.724,2.724c0,1.504-1.219,2.723-2.724,2.723c-1.503,0-2.723-1.219-2.723-2.723
	C90.934,169.286,92.153,168.066,93.656,168.066L93.656,168.066z M97.182,173.783c1.504,0,2.723,1.219,2.723,2.723
	s-1.219,2.723-2.723,2.723s-2.723-1.219-2.723-2.723S95.678,173.783,97.182,173.783L97.182,173.783z M98.74,180.325
	c1.504,0,2.724,1.219,2.724,2.723c0,1.504-1.219,2.723-2.724,2.723c-1.503,0-2.723-1.219-2.723-2.723
	C96.018,181.544,97.237,180.325,98.74,180.325L98.74,180.325z M98.63,187.061c1.504,0,2.723,1.219,2.723,2.723
	s-1.219,2.724-2.723,2.724s-2.723-1.22-2.723-2.724S97.126,187.061,98.63,187.061L98.63,187.061z M97.089,193.614
	c1.504,0,2.723,1.219,2.723,2.723s-1.219,2.724-2.723,2.724s-2.723-1.22-2.723-2.724S95.585,193.614,97.089,193.614L97.089,193.614z
	 M94.002,199.595c1.504,0,2.723,1.22,2.723,2.724s-1.219,2.723-2.723,2.723s-2.723-1.219-2.723-2.723S92.498,199.595,94.002,199.595
	L94.002,199.595z M89.51,204.608c1.504,0,2.724,1.219,2.724,2.723s-1.219,2.723-2.724,2.723c-1.503,0-2.723-1.219-2.723-2.723
	S88.006,204.608,89.51,204.608L89.51,204.608z M83.946,208.399c1.504,0,2.723,1.22,2.723,2.724s-1.219,2.723-2.723,2.723
	c-1.504,0-2.723-1.219-2.723-2.723S82.442,208.399,83.946,208.399L83.946,208.399z M77.663,210.825c1.504,0,2.723,1.219,2.723,2.723
	s-1.219,2.723-2.723,2.723s-2.723-1.219-2.723-2.723S76.159,210.825,77.663,210.825L77.663,210.825z M71.009,211.874
	c1.504,0,2.723,1.22,2.723,2.724s-1.219,2.724-2.723,2.724s-2.723-1.22-2.723-2.724S69.505,211.874,71.009,211.874L71.009,211.874z
	 M64.269,211.726c1.504,0,2.723,1.219,2.723,2.723s-1.219,2.724-2.723,2.724s-2.723-1.22-2.723-2.724S62.765,211.726,64.269,211.726
	L64.269,211.726z M57.67,210.368c1.504,0,2.724,1.219,2.724,2.723s-1.219,2.723-2.724,2.723c-1.503,0-2.723-1.219-2.723-2.723
	S56.167,210.368,57.67,210.368L57.67,210.368z M51.633,207.407c1.504,0,2.723,1.219,2.723,2.723s-1.219,2.723-2.723,2.723
	c-1.504,0-2.723-1.219-2.723-2.723S50.129,207.407,51.633,207.407L51.633,207.407z M46.989,202.565c1.504,0,2.723,1.219,2.723,2.723
	s-1.219,2.724-2.723,2.724s-2.723-1.22-2.723-2.724S45.485,202.565,46.989,202.565L46.989,202.565z M44.065,196.505
	c1.504,0,2.723,1.22,2.723,2.724s-1.219,2.724-2.723,2.724s-2.723-1.22-2.723-2.724S42.561,196.505,44.065,196.505L44.065,196.505z
	 M42.589,189.931c1.504,0,2.723,1.22,2.723,2.724s-1.219,2.724-2.723,2.724c-1.504,0-2.723-1.22-2.723-2.724
	S41.085,189.931,42.589,189.931L42.589,189.931z M42.362,183.195c1.504,0,2.723,1.219,2.723,2.723c0,1.504-1.219,2.723-2.723,2.723
	s-2.723-1.219-2.723-2.723C39.639,184.415,40.858,183.195,42.362,183.195L42.362,183.195z M43.38,176.535
	c1.504,0,2.724,1.219,2.724,2.723c0,1.503-1.219,2.723-2.724,2.723c-1.503,0-2.723-1.219-2.723-2.723
	C40.657,177.754,41.876,176.535,43.38,176.535L43.38,176.535z M45.883,170.291c1.504,0,2.723,1.219,2.723,2.723
	s-1.219,2.723-2.723,2.723s-2.723-1.219-2.723-2.723S44.379,170.291,45.883,170.291L45.883,170.291z M50.191,165.136
	c1.504,0,2.723,1.219,2.723,2.723s-1.219,2.723-2.723,2.723s-2.723-1.219-2.723-2.723S48.688,165.136,50.191,165.136L50.191,165.136
	z M55.914,161.608c1.504,0,2.724,1.219,2.724,2.723s-1.219,2.723-2.724,2.723c-1.503,0-2.723-1.219-2.723-2.723
	S54.411,161.608,55.914,161.608L55.914,161.608z M62.371,159.692c1.504,0,2.723,1.219,2.723,2.724c0,1.503-1.219,2.723-2.723,2.723
	s-2.723-1.219-2.723-2.723C59.647,160.912,60.867,159.692,62.371,159.692L62.371,159.692z M69.083,159.064
	c1.504,0,2.723,1.219,2.723,2.723s-1.219,2.723-2.723,2.723c-1.504,0-2.723-1.219-2.723-2.723S67.579,159.064,69.083,159.064
	L69.083,159.064z M75.792,159.472c1.504,0,2.723,1.219,2.723,2.723s-1.219,2.723-2.723,2.723s-2.723-1.219-2.723-2.723
	S74.289,159.472,75.792,159.472L75.792,159.472z M152.766,49.918c-0.961,0-1.74,0.779-1.74,1.74c0,0.961,0.779,1.741,1.74,1.741
	s1.74-0.779,1.74-1.741C154.506,50.697,153.727,49.918,152.766,49.918L152.766,49.918z M101.307,49.918
	c0.961,0,1.74,0.779,1.74,1.74c0,0.961-0.779,1.741-1.74,1.741s-1.741-0.779-1.741-1.741
	C99.566,50.697,100.345,49.918,101.307,49.918L101.307,49.918z M127.021,58.241c1.366,0,2.473,1.107,2.473,2.473
	c0,1.365-1.106,2.472-2.473,2.472c-1.365,0-2.472-1.107-2.472-2.472C124.548,59.348,125.655,58.241,127.021,58.241L127.021,58.241z
	 M21.857,118.92c-0.429-2.674-0.952-6.673-1.915-9.902c-0.72-2.415-2.089-3.812-1.372,0.303
	C18.844,110.892,20.625,116.413,21.857,118.92L21.857,118.92z M232.182,118.92c0.43-2.674,0.953-6.673,1.916-9.902
	c0.719-2.415,2.088-3.812,1.371,0.303C235.195,110.892,233.414,116.413,232.182,118.92L232.182,118.92z M209.143,82.092
	c2.701,0.189,6.73,0.352,10.033,1.022c2.469,0.501,3.982,1.741-0.18,1.394C217.406,84.376,211.748,83.095,209.143,82.092
	L209.143,82.092z M211.244,89.446c2.729-0.25,5.891-0.524,8.617-0.335c2.373,0.165,2.328,0.97,0.01,1.076
	C216.723,90.329,213.963,90.03,211.244,89.446L211.244,89.446z M206.348,83.172c-0.83,5.181,1.764,10.333,7.002,12.21
	C206.697,95.566,203.65,88.093,206.348,83.172L206.348,83.172z M231.012,86.534c0.953-4.283,2.736-5.903,6.135-7.668
	C232.658,78.711,230.551,82.475,231.012,86.534L231.012,86.534z M222.051,109.418c-0.686,5.036,1.184,8.88,4.68,11.484
	C221.529,119.634,219.645,114.339,222.051,109.418L222.051,109.418z M225.656,113.189c1.115-2.504,2.42-5.398,3.918-7.685
	c1.303-1.99,1.984-1.558,0.943,0.518C229.104,108.839,227.494,111.101,225.656,113.189L225.656,113.189z M128.982,128.635
	c-0.5,0.066-1.011,0.101-1.528,0.101c-6.396,0-11.582-5.185-11.582-11.58c0-3.785,1.816-7.145,4.623-9.258
	c-2.077,2.203-3.351,5.172-3.351,8.44C117.145,122.978,122.403,128.389,128.982,128.635L128.982,128.635z M155.82,111.212
	c-2.723,0.331-5.871,0.729-8.498,1.488c-2.283,0.661-2.07,1.439,0.219,1.053C150.648,113.23,153.283,112.356,155.82,111.212
	L155.82,111.212z M130.316,87.917c-0.527,2.69-1.121,5.809-1.211,8.54c-0.078,2.377,0.729,2.415,1.068,0.118
	C130.637,93.458,130.619,90.683,130.316,87.917L130.316,87.917z M117.503,90.158c0.103-5.735,8.116-11.25,13.629-7.568
	C126.087,81.289,119.585,85.855,117.503,90.158L117.503,90.158z M122.987,85.991c0.029,2.708-0.047,6.741,0.427,10.076
	c0.354,2.495,1.501,4.08,1.402-0.097C124.778,94.376,123.834,88.652,122.987,85.991L122.987,85.991z M100.28,104.975
	c2.396,1.332,5.178,2.861,7.748,3.791c2.236,0.808,2.521,0.053,0.442-0.98C105.649,106.382,103.004,105.54,100.28,104.975
	L100.28,104.975z M98.452,117.853c-5.423-1.87-8.192-11.195-2.987-15.302C92.668,106.947,95.002,114.542,98.452,117.853
	L98.452,117.853z M96.183,111.349c2.584,0.81,6.396,2.127,9.715,2.708c2.482,0.435,4.344-0.167,0.341-1.363
	C104.712,112.238,98.976,111.366,96.183,111.349L96.183,111.349z M107.221,138.811c2.007-1.867,4.321-4.041,5.999-6.197
	c1.459-1.877,0.83-2.382-0.795-0.724C110.218,134.14,108.6,136.396,107.221,138.811L107.221,138.811z M118.903,144.529
	c-3.454,4.58-13.179,4.332-15.476-1.888C106.745,146.66,114.689,146.787,118.903,144.529L118.903,144.529z M112.017,144.677
	c1.569-2.208,4-5.426,5.578-8.403c1.18-2.226,1.183-4.182-1.191-0.745C115.498,136.841,112.896,142.026,112.017,144.677
	L112.017,144.677z M141.545,142.667c-1.154-2.486-2.508-5.358-4.039-7.621c-1.336-1.968-2.01-1.525-0.934,0.533
	C138.029,138.372,139.674,140.608,141.545,142.667L141.545,142.667z M150.594,133.323c3.289,4.7,0.047,13.872-6.578,14.134
	C148.863,145.544,151.439,138.028,150.594,133.323L150.594,133.323z M148.607,139.917c-1.615-2.174-3.924-5.481-6.268-7.901
	c-1.754-1.81-3.613-2.417-1.078,0.903C142.23,134.186,146.357,138.262,148.607,139.917L148.607,139.917z M149.729,99.72
	c5.486-1.675,13.207,4.242,11.41,10.624C160.818,105.143,154.465,100.37,149.729,99.72L149.729,99.72z M155.387,103.647
	c-2.566,0.864-6.426,2.038-9.451,3.52c-2.264,1.107-3.416,2.688,0.525,1.303C147.965,107.941,153.117,105.275,155.387,103.647
	L155.387,103.647z M44.898,82.092c-2.701,0.189-6.731,0.352-10.034,1.022c-2.469,0.501-3.983,1.741,0.18,1.394
	C36.633,84.376,42.291,83.095,44.898,82.092L44.898,82.092z M42.796,89.446c-2.73-0.25-5.893-0.524-8.619-0.335
	c-2.372,0.165-2.328,0.97-0.008,1.076C37.317,90.329,40.076,90.03,42.796,89.446L42.796,89.446z M47.693,83.172
	c0.83,5.181-1.765,10.333-7.003,12.21C47.342,95.566,50.389,88.093,47.693,83.172L47.693,83.172z M23.028,86.534
	c-0.954-4.283-2.736-5.903-6.135-7.668C21.382,78.711,23.488,82.475,23.028,86.534L23.028,86.534z M31.989,109.418
	c0.685,5.036-1.185,8.88-4.68,11.484C32.51,119.634,34.394,114.339,31.989,109.418L31.989,109.418z M28.383,113.189
	c-1.115-2.504-2.421-5.398-3.917-7.685c-1.303-1.99-1.984-1.558-0.943,0.518C24.936,108.839,26.545,111.101,28.383,113.189
	L28.383,113.189z M138.473,9.867c-0.064,0.501-0.164,1.003-0.299,1.504c-1.654,6.178-8.004,9.844-14.183,8.188
	c-3.656-0.979-6.431-3.603-7.746-6.861c1.591,2.577,4.129,4.576,7.285,5.421C129.945,19.838,136.531,16.159,138.473,9.867
	L138.473,9.867z M118.903,35.658c-3.454,4.58-13.179,4.332-15.476-1.888C106.745,37.789,114.689,37.916,118.903,35.658
	L118.903,35.658z M112.017,35.806c1.569-2.208,4-5.426,5.578-8.402c1.18-2.227,1.183-4.183-1.191-0.746
	C115.498,27.97,112.896,33.155,112.017,35.806L112.017,35.806z M141.545,33.795c-1.154-2.486-2.508-5.358-4.039-7.621
	c-1.336-1.968-2.01-1.525-0.934,0.533C138.029,29.501,139.674,31.737,141.545,33.795L141.545,33.795z M150.594,24.452
	c3.289,4.7,0.047,13.872-6.578,14.134C148.863,36.673,151.439,29.157,150.594,24.452L150.594,24.452z M148.607,31.046
	c-1.615-2.174-3.924-5.481-6.268-7.901c-1.754-1.81-3.613-2.417-1.078,0.903C142.23,25.314,146.357,29.391,148.607,31.046
	L148.607,31.046z"/>
</svg>
